<svg width="154" height="40" viewBox="0 0 154 40" fill="none" xmlns="http://www.w3.org/2000/svg">
<rect x="4" y="4" width="150" height="36" fill="#D9D9D9"/>
<rect x="1" y="1" width="148" height="34" fill="#4994EC" stroke="black" stroke-width="2"/>
<path d="M31.8113 17.744V14.528H34.5633C35.1393 14.528 35.5713 14.656 35.8593 14.912C36.1473 15.1573 36.2913 15.5573 36.2913 16.112C36.2913 16.688 36.1473 17.104 35.8593 17.36C35.5713 17.616 35.1393 17.744 34.5633 17.744H31.8113ZM29.2993 12.576V24H31.8113V19.536H34.3233C34.9526 19.536 35.406 19.6747 35.6833 19.952C35.9606 20.2293 36.142 20.6667 36.2273 21.264C36.2913 21.7227 36.3393 22.2027 36.3713 22.704C36.4033 23.2053 36.4886 23.6373 36.6273 24H39.1393C39.022 23.84 38.9313 23.648 38.8673 23.424C38.814 23.1893 38.7713 22.944 38.7393 22.688C38.718 22.432 38.702 22.1813 38.6913 21.936C38.6806 21.6907 38.67 21.4773 38.6593 21.296C38.638 21.008 38.5953 20.72 38.5313 20.432C38.478 20.144 38.3873 19.8827 38.2593 19.648C38.1313 19.4027 37.966 19.1947 37.7633 19.024C37.5606 18.8427 37.3046 18.7093 36.9953 18.624V18.592C37.6353 18.336 38.094 17.9627 38.3713 17.472C38.6593 16.9813 38.8033 16.4 38.8033 15.728C38.8033 15.2907 38.7233 14.8853 38.5633 14.512C38.414 14.128 38.19 13.792 37.8913 13.504C37.6033 13.216 37.2513 12.992 36.8353 12.832C36.43 12.6613 35.9713 12.576 35.4593 12.576H29.2993ZM46.1742 18.976H42.4782C42.4889 18.816 42.5209 18.6347 42.5742 18.432C42.6382 18.2293 42.7395 18.0373 42.8782 17.856C43.0275 17.6747 43.2195 17.5253 43.4542 17.408C43.6995 17.28 44.0035 17.216 44.3662 17.216C44.9209 17.216 45.3315 17.3653 45.5982 17.664C45.8755 17.9627 46.0675 18.4 46.1742 18.976ZM42.4782 20.416H48.4462C48.4889 19.776 48.4355 19.1627 48.2862 18.576C48.1369 17.9893 47.8915 17.4667 47.5502 17.008C47.2195 16.5493 46.7929 16.1867 46.2702 15.92C45.7475 15.6427 45.1342 15.504 44.4302 15.504C43.8009 15.504 43.2249 15.616 42.7022 15.84C42.1902 16.064 41.7475 16.3733 41.3742 16.768C41.0009 17.152 40.7129 17.6107 40.5102 18.144C40.3075 18.6773 40.2062 19.2533 40.2062 19.872C40.2062 20.512 40.3022 21.0987 40.4942 21.632C40.6969 22.1653 40.9795 22.624 41.3422 23.008C41.7049 23.392 42.1475 23.6907 42.6702 23.904C43.1929 24.1067 43.7795 24.208 44.4302 24.208C45.3689 24.208 46.1689 23.9947 46.8302 23.568C47.4915 23.1413 47.9822 22.432 48.3022 21.44H46.3022C46.2275 21.696 46.0249 21.9413 45.6942 22.176C45.3635 22.4 44.9689 22.512 44.5102 22.512C43.8702 22.512 43.3795 22.3467 43.0382 22.016C42.6969 21.6853 42.5102 21.152 42.4782 20.416ZM51.5537 21.312H49.3937C49.415 21.8667 49.5377 22.3307 49.7617 22.704C49.9964 23.0667 50.2897 23.36 50.6417 23.584C51.0044 23.808 51.415 23.968 51.8737 24.064C52.3324 24.16 52.8017 24.208 53.2817 24.208C53.751 24.208 54.2097 24.16 54.6577 24.064C55.1164 23.9787 55.5217 23.824 55.8737 23.6C56.2257 23.376 56.5084 23.0827 56.7217 22.72C56.9457 22.3467 57.0577 21.888 57.0577 21.344C57.0577 20.96 56.983 20.64 56.8337 20.384C56.6844 20.1173 56.487 19.8987 56.2417 19.728C55.9964 19.5467 55.7137 19.4027 55.3937 19.296C55.0844 19.1893 54.7644 19.0987 54.4337 19.024C54.1137 18.9493 53.799 18.88 53.4897 18.816C53.1804 18.752 52.903 18.6827 52.6577 18.608C52.423 18.5227 52.231 18.416 52.0817 18.288C51.9324 18.16 51.8577 17.9947 51.8577 17.792C51.8577 17.6213 51.9004 17.488 51.9857 17.392C52.071 17.2853 52.1724 17.2053 52.2897 17.152C52.4177 17.0987 52.5564 17.0667 52.7057 17.056C52.855 17.0347 52.9937 17.024 53.1217 17.024C53.527 17.024 53.879 17.104 54.1777 17.264C54.4764 17.4133 54.6417 17.7067 54.6737 18.144H56.8337C56.791 17.632 56.6577 17.2107 56.4337 16.88C56.2204 16.5387 55.9484 16.2667 55.6177 16.064C55.287 15.8613 54.9084 15.7173 54.4817 15.632C54.0657 15.5467 53.6337 15.504 53.1857 15.504C52.7377 15.504 52.3004 15.5467 51.8737 15.632C51.447 15.7067 51.063 15.8453 50.7217 16.048C50.3804 16.24 50.103 16.5067 49.8897 16.848C49.687 17.1893 49.5857 17.6267 49.5857 18.16C49.5857 18.5227 49.6604 18.832 49.8097 19.088C49.959 19.3333 50.1564 19.5413 50.4017 19.712C50.647 19.872 50.9244 20.0053 51.2337 20.112C51.5537 20.208 51.879 20.2933 52.2097 20.368C53.0204 20.5387 53.6497 20.7093 54.0977 20.88C54.5564 21.0507 54.7857 21.3067 54.7857 21.648C54.7857 21.8507 54.7377 22.0213 54.6417 22.16C54.5457 22.288 54.423 22.3947 54.2737 22.48C54.135 22.5547 53.975 22.6133 53.7937 22.656C53.623 22.688 53.4577 22.704 53.2977 22.704C53.0737 22.704 52.855 22.6773 52.6417 22.624C52.439 22.5707 52.2577 22.4907 52.0977 22.384C51.9377 22.2667 51.8044 22.1227 51.6977 21.952C51.6017 21.7707 51.5537 21.5573 51.5537 21.312ZM63.9554 18.976H60.2594C60.2701 18.816 60.3021 18.6347 60.3554 18.432C60.4194 18.2293 60.5208 18.0373 60.6594 17.856C60.8088 17.6747 61.0008 17.5253 61.2354 17.408C61.4808 17.28 61.7848 17.216 62.1474 17.216C62.7021 17.216 63.1128 17.3653 63.3794 17.664C63.6568 17.9627 63.8488 18.4 63.9554 18.976ZM60.2594 20.416H66.2274C66.2701 19.776 66.2168 19.1627 66.0674 18.576C65.9181 17.9893 65.6728 17.4667 65.3314 17.008C65.0008 16.5493 64.5741 16.1867 64.0514 15.92C63.5288 15.6427 62.9154 15.504 62.2114 15.504C61.5821 15.504 61.0061 15.616 60.4834 15.84C59.9714 16.064 59.5288 16.3733 59.1554 16.768C58.7821 17.152 58.4941 17.6107 58.2914 18.144C58.0888 18.6773 57.9874 19.2533 57.9874 19.872C57.9874 20.512 58.0834 21.0987 58.2754 21.632C58.4781 22.1653 58.7608 22.624 59.1234 23.008C59.4861 23.392 59.9288 23.6907 60.4514 23.904C60.9741 24.1067 61.5608 24.208 62.2114 24.208C63.1501 24.208 63.9501 23.9947 64.6114 23.568C65.2728 23.1413 65.7634 22.432 66.0834 21.44H64.0834C64.0088 21.696 63.8061 21.9413 63.4754 22.176C63.1448 22.4 62.7501 22.512 62.2914 22.512C61.6514 22.512 61.1608 22.3467 60.8194 22.016C60.4781 21.6853 60.2914 21.152 60.2594 20.416ZM70.4549 15.728V13.248H68.1829V15.728H66.8069V17.248H68.1829V22.128C68.1829 22.544 68.2523 22.88 68.3909 23.136C68.5296 23.392 68.7163 23.5893 68.9509 23.728C69.1963 23.8667 69.4736 23.9573 69.7829 24C70.1029 24.0533 70.4389 24.08 70.7909 24.08C71.0149 24.08 71.2443 24.0747 71.4789 24.064C71.7136 24.0533 71.9269 24.032 72.1189 24V22.24C72.0123 22.2613 71.9003 22.2773 71.7829 22.288C71.6656 22.2987 71.5429 22.304 71.4149 22.304C71.0309 22.304 70.7749 22.24 70.6469 22.112C70.5189 21.984 70.4549 21.728 70.4549 21.344V17.248H72.1189V15.728H70.4549ZM86.1491 22.704L86.4051 24H88.0051V17.824H83.2051V19.696H85.7331C85.6584 20.496 85.3917 21.1093 84.9331 21.536C84.4851 21.952 83.8451 22.16 83.0131 22.16C82.4477 22.16 81.9677 22.0533 81.5731 21.84C81.1784 21.616 80.8584 21.3227 80.6131 20.96C80.3677 20.5973 80.1864 20.192 80.0691 19.744C79.9624 19.2853 79.9091 18.816 79.9091 18.336C79.9091 17.8347 79.9624 17.3493 80.0691 16.88C80.1864 16.4107 80.3677 15.9947 80.6131 15.632C80.8584 15.2587 81.1784 14.9653 81.5731 14.752C81.9677 14.528 82.4477 14.416 83.0131 14.416C83.6211 14.416 84.1384 14.576 84.5651 14.896C84.9917 15.216 85.2797 15.696 85.4291 16.336H87.8291C87.7651 15.6853 87.5891 15.1093 87.3011 14.608C87.0131 14.1067 86.6451 13.6853 86.1971 13.344C85.7597 13.0027 85.2637 12.7467 84.7091 12.576C84.1651 12.3947 83.5997 12.304 83.0131 12.304C82.1384 12.304 81.3491 12.4587 80.6451 12.768C79.9517 13.0773 79.3651 13.504 78.8851 14.048C78.4051 14.592 78.0371 15.232 77.7811 15.968C77.5251 16.6933 77.3971 17.4827 77.3971 18.336C77.3971 19.168 77.5251 19.9467 77.7811 20.672C78.0371 21.3867 78.4051 22.0107 78.8851 22.544C79.3651 23.0773 79.9517 23.4987 80.6451 23.808C81.3491 24.1067 82.1384 24.256 83.0131 24.256C83.5677 24.256 84.1171 24.144 84.6611 23.92C85.2051 23.6853 85.7011 23.28 86.1491 22.704ZM89.6977 18.272C89.7297 17.7387 89.863 17.296 90.0977 16.944C90.3324 16.592 90.631 16.3093 90.9937 16.096C91.3564 15.8827 91.7617 15.7333 92.2097 15.648C92.6684 15.552 93.127 15.504 93.5857 15.504C94.0017 15.504 94.423 15.536 94.8497 15.6C95.2764 15.6533 95.6657 15.7653 96.0177 15.936C96.3697 16.1067 96.6577 16.3467 96.8817 16.656C97.1057 16.9547 97.2177 17.3547 97.2177 17.856V22.16C97.2177 22.5333 97.239 22.8907 97.2817 23.232C97.3244 23.5733 97.399 23.8293 97.5057 24H95.2017C95.159 23.872 95.1217 23.744 95.0897 23.616C95.0684 23.4773 95.0524 23.3387 95.0417 23.2C94.679 23.5733 94.2524 23.8347 93.7617 23.984C93.271 24.1333 92.7697 24.208 92.2577 24.208C91.863 24.208 91.495 24.16 91.1537 24.064C90.8124 23.968 90.5137 23.8187 90.2577 23.616C90.0017 23.4133 89.799 23.1573 89.6497 22.848C89.511 22.5387 89.4417 22.1707 89.4417 21.744C89.4417 21.2747 89.5217 20.8907 89.6817 20.592C89.8524 20.2827 90.0657 20.0373 90.3217 19.856C90.5884 19.6747 90.887 19.5413 91.2177 19.456C91.559 19.36 91.9004 19.2853 92.2417 19.232C92.583 19.1787 92.919 19.136 93.2497 19.104C93.5804 19.072 93.8737 19.024 94.1297 18.96C94.3857 18.896 94.5884 18.8053 94.7377 18.688C94.887 18.56 94.9564 18.3787 94.9457 18.144C94.9457 17.8987 94.903 17.7067 94.8177 17.568C94.743 17.4187 94.6364 17.3067 94.4977 17.232C94.3697 17.1467 94.215 17.0933 94.0337 17.072C93.863 17.04 93.6764 17.024 93.4737 17.024C93.0257 17.024 92.6737 17.12 92.4177 17.312C92.1617 17.504 92.0124 17.824 91.9697 18.272H89.6977ZM94.9457 19.952C94.8497 20.0373 94.727 20.1067 94.5777 20.16C94.439 20.2027 94.2844 20.24 94.1137 20.272C93.9537 20.304 93.783 20.3307 93.6017 20.352C93.4204 20.3733 93.239 20.4 93.0577 20.432C92.887 20.464 92.7164 20.5067 92.5457 20.56C92.3857 20.6133 92.2417 20.688 92.1137 20.784C91.9964 20.8693 91.9004 20.9813 91.8257 21.12C91.751 21.2587 91.7137 21.4347 91.7137 21.648C91.7137 21.8507 91.751 22.0213 91.8257 22.16C91.9004 22.2987 92.0017 22.4107 92.1297 22.496C92.2577 22.5707 92.407 22.624 92.5777 22.656C92.7484 22.688 92.9244 22.704 93.1057 22.704C93.5537 22.704 93.9004 22.6293 94.1457 22.48C94.391 22.3307 94.5724 22.1547 94.6897 21.952C94.807 21.7387 94.8764 21.5253 94.8977 21.312C94.9297 21.0987 94.9457 20.928 94.9457 20.8V19.952ZM99.0452 15.728V24H101.317V19.2C101.317 18.7947 101.376 18.4693 101.493 18.224C101.611 17.968 101.749 17.776 101.909 17.648C102.08 17.5093 102.251 17.4187 102.421 17.376C102.603 17.3227 102.747 17.296 102.853 17.296C103.216 17.296 103.488 17.36 103.669 17.488C103.861 17.6053 103.995 17.7653 104.069 17.968C104.155 18.1707 104.203 18.3947 104.213 18.64C104.224 18.8747 104.229 19.1147 104.229 19.36V24H106.501V19.392C106.501 19.136 106.517 18.8853 106.549 18.64C106.592 18.384 106.667 18.16 106.773 17.968C106.891 17.7653 107.045 17.6053 107.237 17.488C107.44 17.36 107.701 17.296 108.021 17.296C108.341 17.296 108.592 17.3493 108.773 17.456C108.965 17.5627 109.109 17.7067 109.205 17.888C109.301 18.0693 109.36 18.2827 109.381 18.528C109.403 18.7733 109.413 19.0347 109.413 19.312V24H111.685V18.464C111.685 17.9307 111.611 17.4773 111.461 17.104C111.312 16.72 111.104 16.4107 110.837 16.176C110.571 15.9413 110.251 15.7707 109.877 15.664C109.504 15.5573 109.099 15.504 108.661 15.504C108.085 15.504 107.584 15.6427 107.157 15.92C106.741 16.1973 106.411 16.5173 106.165 16.88C105.941 16.368 105.611 16.0107 105.173 15.808C104.747 15.6053 104.272 15.504 103.749 15.504C103.205 15.504 102.72 15.6213 102.293 15.856C101.877 16.0907 101.52 16.4213 101.221 16.848H101.189V15.728H99.0452ZM119.049 18.976H115.353C115.364 18.816 115.396 18.6347 115.449 18.432C115.513 18.2293 115.615 18.0373 115.753 17.856C115.903 17.6747 116.095 17.5253 116.329 17.408C116.575 17.28 116.879 17.216 117.241 17.216C117.796 17.216 118.207 17.3653 118.473 17.664C118.751 17.9627 118.943 18.4 119.049 18.976ZM115.353 20.416H121.321C121.364 19.776 121.311 19.1627 121.161 18.576C121.012 17.9893 120.767 17.4667 120.425 17.008C120.095 16.5493 119.668 16.1867 119.145 15.92C118.623 15.6427 118.009 15.504 117.305 15.504C116.676 15.504 116.1 15.616 115.577 15.84C115.065 16.064 114.623 16.3733 114.249 16.768C113.876 17.152 113.588 17.6107 113.385 18.144C113.183 18.6773 113.081 19.2533 113.081 19.872C113.081 20.512 113.177 21.0987 113.369 21.632C113.572 22.1653 113.855 22.624 114.217 23.008C114.58 23.392 115.023 23.6907 115.545 23.904C116.068 24.1067 116.655 24.208 117.305 24.208C118.244 24.208 119.044 23.9947 119.705 23.568C120.367 23.1413 120.857 22.432 121.177 21.44H119.177C119.103 21.696 118.9 21.9413 118.569 22.176C118.239 22.4 117.844 22.512 117.385 22.512C116.745 22.512 116.255 22.3467 115.913 22.016C115.572 21.6853 115.385 21.152 115.353 20.416Z" fill="black"/>
</svg>
