<svg width="60" height="60" viewBox="0 0 60 60" fill="none" xmlns="http://www.w3.org/2000/svg">
<rect x="2.44897" y="2.44897" width="57.551" height="57.551" fill="#D9D9D9"/>
<rect x="1" y="1" width="55.551" height="55.551" fill="#4994EC" stroke="black" stroke-width="2"/>
<g clip-path="url(#clip0_31_290)">
<path fill-rule="evenodd" clip-rule="evenodd" d="M29.586 22.5C29.961 22.1251 30.4697 21.9144 31 21.9144C31.5303 21.9144 32.0389 22.1251 32.414 22.5L34.046 24.132C34.26 23.832 34.466 23.528 34.668 23.227C35.05 22.653 35.416 21.801 36.267 22.037C36.4776 22.0954 36.6633 22.2211 36.7957 22.395C36.9281 22.5689 36.9998 22.7814 37 23V29C36.9998 30.418 36.4976 31.7901 35.5824 32.8732C34.6672 33.9562 33.3981 34.6803 32 34.917V38.917C32.9518 38.7557 33.8508 38.3673 34.6207 37.7849C35.3906 37.2025 36.0088 36.4431 36.423 35.571C36.4793 35.4524 36.5585 35.346 36.6559 35.2579C36.7534 35.1698 36.8672 35.1018 36.991 35.0578C37.1147 35.0137 37.2459 34.9945 37.3771 35.0011C37.5083 35.0077 37.6368 35.0402 37.7555 35.0965C37.8741 35.1528 37.9805 35.232 38.0686 35.3294C38.1566 35.4269 38.2246 35.5407 38.2687 35.6645C38.3128 35.7882 38.332 35.9194 38.3254 36.0506C38.3187 36.1818 38.2863 36.3104 38.23 36.429C37.6537 37.6434 36.7809 38.6932 35.6921 39.4816C34.6033 40.2699 33.3336 40.7715 32 40.94C32 41.506 31.593 42.001 31 42.001C30.407 42.001 30 41.506 30 40.939C28.6666 40.7707 27.397 40.2694 26.3082 39.4814C25.2194 38.6934 24.3466 37.644 23.77 36.43C23.6562 36.1904 23.6423 35.9154 23.7313 35.6655C23.8203 35.4156 24.0049 35.2113 24.2445 35.0975C24.4841 34.9837 24.7591 34.9698 25.009 35.0588C25.2589 35.1478 25.4632 35.3324 25.577 35.572C25.9913 36.4439 26.6096 37.2031 27.3795 37.7853C28.1494 38.3676 29.0483 38.7558 30 38.917V34.917C28.6019 34.6803 27.3328 33.9562 26.4176 32.8732C25.5024 31.7901 25.0002 30.418 25 29V23C24.9999 22.7813 25.0716 22.5685 25.204 22.3944C25.3364 22.2203 25.5222 22.0944 25.733 22.036C26.579 21.802 26.953 22.657 27.333 23.226C27.533 23.528 27.74 23.832 27.954 24.132L29.586 22.5ZM29.218 25.696C29.63 26.133 30.352 27 31 27C31.648 27 32.37 26.133 32.782 25.696L31 23.914L29.218 25.696Z" fill="black"/>
</g>
<defs>
<clipPath id="clip0_31_290">
<rect width="24" height="24" fill="white" transform="translate(19 20)"/>
</clipPath>
</defs>
</svg>
