<svg width="158" height="181" viewBox="0 0 158 181" fill="none" xmlns="http://www.w3.org/2000/svg">
<rect x="2" y="2" width="154" height="176.571" fill="#D9D9D9" stroke="black" stroke-width="4"/>
<rect x="7.77142" y="7.77142" width="43.4653" height="43.4653" fill="#4994EC" stroke="black" stroke-width="2"/>
<rect x="7.77142" y="57.4286" width="43.4653" height="43.4653" fill="#4994EC" stroke="black" stroke-width="2"/>
<rect x="7.77142" y="107.086" width="43.4653" height="43.4653" fill="#4994EC" stroke="black" stroke-width="2"/>
<rect x="56.4612" y="7.77142" width="43.4653" height="43.4653" fill="#4994EC" stroke="black" stroke-width="2"/>
<rect x="56.4612" y="57.4286" width="43.4653" height="43.4653" fill="#4994EC" stroke="black" stroke-width="2"/>
<rect x="56.4612" y="107.086" width="43.4653" height="43.4653" fill="#4994EC" stroke="black" stroke-width="2"/>
<rect x="106.118" y="7.77142" width="43.4653" height="43.4653" fill="#4994EC" stroke="black" stroke-width="2"/>
<rect x="106.118" y="57.4286" width="43.4653" height="43.4653" fill="#4994EC" stroke="black" stroke-width="2"/>
<rect x="106.118" y="107.086" width="43.4653" height="43.4653" fill="#4994EC" stroke="black" stroke-width="2"/>
<path d="M75.248 79.6413C75.248 79.1453 75.296 78.6573 75.392 78.1773C75.488 77.6973 75.648 77.2733 75.872 76.9053C76.112 76.5373 76.424 76.2413 76.808 76.0173C77.192 75.7773 77.672 75.6573 78.248 75.6573C78.824 75.6573 79.304 75.7773 79.688 76.0173C80.088 76.2413 80.4 76.5373 80.624 76.9053C80.864 77.2733 81.032 77.6973 81.128 78.1773C81.224 78.6573 81.272 79.1453 81.272 79.6413C81.272 80.1373 81.224 80.6253 81.128 81.1053C81.032 81.5693 80.864 81.9933 80.624 82.3773C80.4 82.7453 80.088 83.0413 79.688 83.2653C79.304 83.4893 78.824 83.6013 78.248 83.6013C77.672 83.6013 77.192 83.4893 76.808 83.2653C76.424 83.0413 76.112 82.7453 75.872 82.3773C75.648 81.9933 75.488 81.5693 75.392 81.1053C75.296 80.6253 75.248 80.1373 75.248 79.6413ZM71.84 79.6413C71.84 80.6333 71.992 81.5293 72.296 82.3293C72.6 83.1293 73.032 83.8173 73.592 84.3933C74.152 84.9533 74.824 85.3853 75.608 85.6893C76.392 85.9933 77.272 86.1453 78.248 86.1453C79.224 86.1453 80.104 85.9933 80.888 85.6893C81.688 85.3853 82.368 84.9533 82.928 84.3933C83.488 83.8173 83.92 83.1293 84.224 82.3293C84.528 81.5293 84.68 80.6333 84.68 79.6413C84.68 78.6493 84.528 77.7533 84.224 76.9533C83.92 76.1373 83.488 75.4493 82.928 74.8893C82.368 74.3133 81.688 73.8733 80.888 73.5693C80.104 73.2493 79.224 73.0893 78.248 73.0893C77.272 73.0893 76.392 73.2493 75.608 73.5693C74.824 73.8733 74.152 74.3133 73.592 74.8893C73.032 75.4493 72.6 76.1373 72.296 76.9533C71.992 77.7533 71.84 78.6493 71.84 79.6413Z" fill="black"/>
<path d="M124.48 30.9819C124.48 30.4859 124.528 29.9979 124.624 29.5179C124.72 29.0379 124.88 28.6139 125.104 28.2459C125.344 27.8779 125.656 27.5819 126.04 27.3579C126.424 27.1179 126.904 26.9979 127.48 26.9979C128.056 26.9979 128.536 27.1179 128.92 27.3579C129.32 27.5819 129.632 27.8779 129.856 28.2459C130.096 28.6139 130.264 29.0379 130.36 29.5179C130.456 29.9979 130.504 30.4859 130.504 30.9819C130.504 31.4779 130.456 31.9659 130.36 32.4459C130.264 32.9099 130.096 33.3339 129.856 33.7179C129.632 34.0859 129.32 34.3819 128.92 34.6059C128.536 34.8299 128.056 34.9419 127.48 34.9419C126.904 34.9419 126.424 34.8299 126.04 34.6059C125.656 34.3819 125.344 34.0859 125.104 33.7179C124.88 33.3339 124.72 32.9099 124.624 32.4459C124.528 31.9659 124.48 31.4779 124.48 30.9819ZM121.072 30.9819C121.072 31.9739 121.224 32.8699 121.528 33.6699C121.832 34.4699 122.264 35.1579 122.824 35.7339C123.384 36.2939 124.056 36.7259 124.84 37.0299C125.624 37.3339 126.504 37.4859 127.48 37.4859C128.456 37.4859 129.336 37.3339 130.12 37.0299C130.92 36.7259 131.6 36.2939 132.16 35.7339C132.72 35.1579 133.152 34.4699 133.456 33.6699C133.76 32.8699 133.912 31.9739 133.912 30.9819C133.912 29.9899 133.76 29.0939 133.456 28.2939C133.152 27.4779 132.72 26.7899 132.16 26.2299C131.6 25.6539 130.92 25.2139 130.12 24.9099C129.336 24.5899 128.456 24.4299 127.48 24.4299C126.504 24.4299 125.624 24.5899 124.84 24.9099C124.056 25.2139 123.384 25.6539 122.824 26.2299C122.264 26.7899 121.832 27.4779 121.528 28.2939C121.224 29.0939 121.072 29.9899 121.072 30.9819Z" fill="black"/>
<path d="M26.5886 128.873C26.5886 128.377 26.6366 127.889 26.7326 127.409C26.8286 126.929 26.9886 126.505 27.2126 126.137C27.4526 125.769 27.7646 125.473 28.1486 125.249C28.5326 125.009 29.0126 124.889 29.5886 124.889C30.1646 124.889 30.6446 125.009 31.0286 125.249C31.4286 125.473 31.7406 125.769 31.9646 126.137C32.2046 126.505 32.3726 126.929 32.4686 127.409C32.5646 127.889 32.6126 128.377 32.6126 128.873C32.6126 129.369 32.5646 129.857 32.4686 130.337C32.3726 130.801 32.2046 131.225 31.9646 131.609C31.7406 131.977 31.4286 132.273 31.0286 132.497C30.6446 132.721 30.1646 132.833 29.5886 132.833C29.0126 132.833 28.5326 132.721 28.1486 132.497C27.7646 132.273 27.4526 131.977 27.2126 131.609C26.9886 131.225 26.8286 130.801 26.7326 130.337C26.6366 129.857 26.5886 129.369 26.5886 128.873ZM23.1806 128.873C23.1806 129.865 23.3326 130.761 23.6366 131.561C23.9406 132.361 24.3726 133.049 24.9326 133.625C25.4926 134.185 26.1646 134.617 26.9486 134.921C27.7326 135.225 28.6126 135.377 29.5886 135.377C30.5646 135.377 31.4446 135.225 32.2286 134.921C33.0286 134.617 33.7086 134.185 34.2686 133.625C34.8286 133.049 35.2606 132.361 35.5646 131.561C35.8686 130.761 36.0206 129.865 36.0206 128.873C36.0206 127.881 35.8686 126.985 35.5646 126.185C35.2606 125.369 34.8286 124.681 34.2686 124.121C33.7086 123.545 33.0286 123.105 32.2286 122.801C31.4446 122.481 30.5646 122.321 29.5886 122.321C28.6126 122.321 27.7326 122.481 26.9486 122.801C26.1646 123.105 25.4926 123.545 24.9326 124.121C24.3726 124.681 23.9406 125.369 23.6366 126.185C23.3326 126.985 23.1806 127.881 23.1806 128.873Z" fill="black"/>
<path d="M125.515 128.537L121.051 135.065H124.867L127.459 131.153L130.051 135.065H133.939L129.355 128.465L133.435 122.657H129.667L127.507 125.897L125.323 122.657H121.435L125.515 128.537Z" fill="black"/>
<path d="M76.2826 128.537L71.8186 135.065H75.6346L78.2266 131.153L80.8186 135.065H84.7066L80.1226 128.465L84.2026 122.657H80.4346L78.2746 125.897L76.0906 122.657H72.2026L76.2826 128.537Z" fill="black"/>
<path d="M125.515 79.3053L121.051 85.8333H124.867L127.459 81.9213L130.051 85.8333H133.939L129.355 79.2333L133.435 73.4253H129.667L127.507 76.6653L125.323 73.4253H121.435L125.515 79.3053Z" fill="black"/>
<path d="M26.1593 160.078V156.358H22.7513V160.078H20.6873V162.358H22.7513V169.678C22.7513 170.302 22.8553 170.806 23.0633 171.19C23.2713 171.574 23.5513 171.87 23.9033 172.078C24.2713 172.286 24.6873 172.422 25.1513 172.486C25.6313 172.566 26.1353 172.606 26.6633 172.606C26.9993 172.606 27.3433 172.598 27.6953 172.582C28.0473 172.566 28.3673 172.534 28.6553 172.486V169.846C28.4953 169.878 28.3273 169.902 28.1513 169.918C27.9753 169.934 27.7913 169.942 27.5993 169.942C27.0233 169.942 26.6393 169.846 26.4473 169.654C26.2553 169.462 26.1593 169.078 26.1593 168.502V162.358H28.6553V160.078H26.1593ZM33.7808 158.158V155.35H30.3728V158.158H33.7808ZM30.3728 160.078V172.486H33.7808V160.078H30.3728ZM44.9123 164.446H48.2483C48.2003 163.646 48.0083 162.958 47.6723 162.382C47.3363 161.79 46.8963 161.302 46.3523 160.918C45.8243 160.518 45.2163 160.222 44.5283 160.03C43.8563 159.838 43.1523 159.742 42.4163 159.742C41.4083 159.742 40.5123 159.91 39.7283 160.246C38.9443 160.582 38.2803 161.054 37.7363 161.662C37.1923 162.254 36.7763 162.966 36.4883 163.798C36.2163 164.614 36.0803 165.502 36.0803 166.462C36.0803 167.39 36.2323 168.246 36.5363 169.03C36.8403 169.798 37.2643 170.462 37.8083 171.022C38.3523 171.582 39.0083 172.022 39.7763 172.342C40.5603 172.646 41.4163 172.798 42.3443 172.798C43.9923 172.798 45.3443 172.366 46.4003 171.502C47.4563 170.638 48.0963 169.382 48.3203 167.734H45.0323C44.9203 168.502 44.6403 169.118 44.1923 169.582C43.7603 170.03 43.1363 170.254 42.3203 170.254C41.7923 170.254 41.3443 170.134 40.9763 169.894C40.6083 169.654 40.3123 169.35 40.0883 168.982C39.8803 168.598 39.7283 168.174 39.6323 167.71C39.5363 167.246 39.4883 166.79 39.4883 166.342C39.4883 165.878 39.5363 165.414 39.6323 164.95C39.7283 164.47 39.8883 164.038 40.1123 163.654C40.3523 163.254 40.6563 162.934 41.0243 162.694C41.3923 162.438 41.8483 162.31 42.3923 162.31C43.8483 162.31 44.6883 163.022 44.9123 164.446ZM61.2452 160.078V156.358H57.8372V160.078H55.7732V162.358H57.8372V169.678C57.8372 170.302 57.9412 170.806 58.1492 171.19C58.3572 171.574 58.6372 171.87 58.9892 172.078C59.3572 172.286 59.7732 172.422 60.2372 172.486C60.7172 172.566 61.2212 172.606 61.7492 172.606C62.0852 172.606 62.4292 172.598 62.7812 172.582C63.1332 172.566 63.4532 172.534 63.7412 172.486V169.846C63.5812 169.878 63.4132 169.902 63.2372 169.918C63.0612 169.934 62.8772 169.942 62.6852 169.942C62.1092 169.942 61.7252 169.846 61.5332 169.654C61.3412 169.462 61.2452 169.078 61.2452 168.502V162.358H63.7412V160.078H61.2452ZM65.2187 163.894C65.2667 163.094 65.4667 162.43 65.8187 161.902C66.1707 161.374 66.6187 160.95 67.1627 160.63C67.7067 160.31 68.3147 160.086 68.9867 159.958C69.6747 159.814 70.3627 159.742 71.0507 159.742C71.6747 159.742 72.3067 159.79 72.9467 159.886C73.5867 159.966 74.1707 160.134 74.6987 160.39C75.2267 160.646 75.6587 161.006 75.9947 161.47C76.3307 161.918 76.4987 162.518 76.4987 163.27V169.726C76.4987 170.286 76.5307 170.822 76.5947 171.334C76.6587 171.846 76.7707 172.23 76.9307 172.486H73.4747C73.4107 172.294 73.3547 172.102 73.3067 171.91C73.2747 171.702 73.2507 171.494 73.2347 171.286C72.6907 171.846 72.0507 172.238 71.3147 172.462C70.5787 172.686 69.8267 172.798 69.0587 172.798C68.4667 172.798 67.9147 172.726 67.4027 172.582C66.8907 172.438 66.4427 172.214 66.0587 171.91C65.6747 171.606 65.3707 171.222 65.1467 170.758C64.9387 170.294 64.8347 169.742 64.8347 169.102C64.8347 168.398 64.9547 167.822 65.1947 167.374C65.4507 166.91 65.7707 166.542 66.1547 166.27C66.5547 165.998 67.0027 165.798 67.4987 165.67C68.0107 165.526 68.5227 165.414 69.0347 165.334C69.5467 165.254 70.0507 165.19 70.5467 165.142C71.0427 165.094 71.4827 165.022 71.8667 164.926C72.2507 164.83 72.5547 164.694 72.7787 164.518C73.0027 164.326 73.1067 164.054 73.0907 163.702C73.0907 163.334 73.0267 163.046 72.8987 162.838C72.7867 162.614 72.6267 162.446 72.4187 162.334C72.2267 162.206 71.9947 162.126 71.7227 162.094C71.4667 162.046 71.1867 162.022 70.8827 162.022C70.2107 162.022 69.6827 162.166 69.2987 162.454C68.9147 162.742 68.6907 163.222 68.6267 163.894H65.2187ZM73.0907 166.414C72.9467 166.542 72.7627 166.646 72.5387 166.726C72.3307 166.79 72.0987 166.846 71.8427 166.894C71.6027 166.942 71.3467 166.982 71.0747 167.014C70.8027 167.046 70.5307 167.086 70.2587 167.134C70.0027 167.182 69.7467 167.246 69.4907 167.326C69.2507 167.406 69.0347 167.518 68.8427 167.662C68.6667 167.79 68.5227 167.958 68.4107 168.166C68.2987 168.374 68.2427 168.638 68.2427 168.958C68.2427 169.262 68.2987 169.518 68.4107 169.726C68.5227 169.934 68.6747 170.102 68.8667 170.23C69.0587 170.342 69.2827 170.422 69.5387 170.47C69.7947 170.518 70.0587 170.542 70.3307 170.542C71.0027 170.542 71.5227 170.43 71.8907 170.206C72.2587 169.982 72.5307 169.718 72.7067 169.414C72.8827 169.094 72.9867 168.774 73.0187 168.454C73.0667 168.134 73.0907 167.878 73.0907 167.686V166.414ZM87.592 164.446H90.928C90.88 163.646 90.688 162.958 90.352 162.382C90.016 161.79 89.576 161.302 89.032 160.918C88.504 160.518 87.896 160.222 87.208 160.03C86.536 159.838 85.832 159.742 85.096 159.742C84.088 159.742 83.192 159.91 82.408 160.246C81.624 160.582 80.96 161.054 80.416 161.662C79.872 162.254 79.456 162.966 79.168 163.798C78.896 164.614 78.76 165.502 78.76 166.462C78.76 167.39 78.912 168.246 79.216 169.03C79.52 169.798 79.944 170.462 80.488 171.022C81.032 171.582 81.688 172.022 82.456 172.342C83.24 172.646 84.096 172.798 85.024 172.798C86.672 172.798 88.024 172.366 89.08 171.502C90.136 170.638 90.776 169.382 91 167.734H87.712C87.6 168.502 87.32 169.118 86.872 169.582C86.44 170.03 85.816 170.254 85 170.254C84.472 170.254 84.024 170.134 83.656 169.894C83.288 169.654 82.992 169.35 82.768 168.982C82.56 168.598 82.408 168.174 82.312 167.71C82.216 167.246 82.168 166.79 82.168 166.342C82.168 165.878 82.216 165.414 82.312 164.95C82.408 164.47 82.568 164.038 82.792 163.654C83.032 163.254 83.336 162.934 83.704 162.694C84.072 162.438 84.528 162.31 85.072 162.31C86.528 162.31 87.368 163.022 87.592 164.446ZM103.925 160.078V156.358H100.517V160.078H98.4529V162.358H100.517V169.678C100.517 170.302 100.621 170.806 100.829 171.19C101.037 171.574 101.317 171.87 101.669 172.078C102.037 172.286 102.453 172.422 102.917 172.486C103.397 172.566 103.901 172.606 104.429 172.606C104.765 172.606 105.109 172.598 105.461 172.582C105.813 172.566 106.133 172.534 106.421 172.486V169.846C106.261 169.878 106.093 169.902 105.917 169.918C105.741 169.934 105.557 169.942 105.365 169.942C104.789 169.942 104.405 169.846 104.213 169.654C104.021 169.462 103.925 169.078 103.925 168.502V162.358H106.421V160.078H103.925ZM111.066 166.294C111.066 165.798 111.114 165.31 111.21 164.83C111.306 164.35 111.466 163.926 111.69 163.558C111.93 163.19 112.242 162.894 112.626 162.67C113.01 162.43 113.49 162.31 114.066 162.31C114.642 162.31 115.122 162.43 115.506 162.67C115.906 162.894 116.218 163.19 116.442 163.558C116.682 163.926 116.85 164.35 116.946 164.83C117.042 165.31 117.09 165.798 117.09 166.294C117.09 166.79 117.042 167.278 116.946 167.758C116.85 168.222 116.682 168.646 116.442 169.03C116.218 169.398 115.906 169.694 115.506 169.918C115.122 170.142 114.642 170.254 114.066 170.254C113.49 170.254 113.01 170.142 112.626 169.918C112.242 169.694 111.93 169.398 111.69 169.03C111.466 168.646 111.306 168.222 111.21 167.758C111.114 167.278 111.066 166.79 111.066 166.294ZM107.658 166.294C107.658 167.286 107.81 168.182 108.114 168.982C108.418 169.782 108.85 170.47 109.41 171.046C109.97 171.606 110.642 172.038 111.426 172.342C112.21 172.646 113.09 172.798 114.066 172.798C115.042 172.798 115.922 172.646 116.706 172.342C117.506 172.038 118.186 171.606 118.746 171.046C119.306 170.47 119.738 169.782 120.042 168.982C120.346 168.182 120.498 167.286 120.498 166.294C120.498 165.302 120.346 164.406 120.042 163.606C119.738 162.79 119.306 162.102 118.746 161.542C118.186 160.966 117.506 160.526 116.706 160.222C115.922 159.902 115.042 159.742 114.066 159.742C113.09 159.742 112.21 159.902 111.426 160.222C110.642 160.526 109.97 160.966 109.41 161.542C108.85 162.102 108.418 162.79 108.114 163.606C107.81 164.406 107.658 165.302 107.658 166.294ZM131.066 164.95H125.522C125.538 164.71 125.586 164.438 125.666 164.134C125.762 163.83 125.914 163.542 126.122 163.27C126.346 162.998 126.634 162.774 126.986 162.598C127.354 162.406 127.81 162.31 128.354 162.31C129.186 162.31 129.802 162.534 130.202 162.982C130.618 163.43 130.906 164.086 131.066 164.95ZM125.522 167.11H134.474C134.538 166.15 134.458 165.23 134.234 164.35C134.01 163.47 133.642 162.686 133.13 161.998C132.634 161.31 131.994 160.766 131.21 160.366C130.426 159.95 129.506 159.742 128.45 159.742C127.506 159.742 126.642 159.91 125.858 160.246C125.09 160.582 124.426 161.046 123.866 161.638C123.306 162.214 122.874 162.902 122.57 163.702C122.266 164.502 122.114 165.366 122.114 166.294C122.114 167.254 122.258 168.134 122.546 168.934C122.85 169.734 123.274 170.422 123.818 170.998C124.362 171.574 125.026 172.022 125.81 172.342C126.594 172.646 127.474 172.798 128.45 172.798C129.858 172.798 131.058 172.478 132.05 171.838C133.042 171.198 133.778 170.134 134.258 168.646H131.258C131.146 169.03 130.842 169.398 130.346 169.75C129.85 170.086 129.258 170.254 128.57 170.254C127.61 170.254 126.874 170.006 126.362 169.51C125.85 169.014 125.57 168.214 125.522 167.11Z" fill="black"/>
</svg>
