<svg width="60" height="60" viewBox="0 0 60 60" fill="none" xmlns="http://www.w3.org/2000/svg">
<rect x="2.44898" y="2.44898" width="57.551" height="57.551" fill="#D9D9D9"/>
<rect x="1" y="1" width="55.551" height="55.551" fill="#4994EC" stroke="black" stroke-width="2"/>
<g clip-path="url(#clip0_31_291)">
<path fill-rule="evenodd" clip-rule="evenodd" d="M27.586 21.5C27.9399 21.1461 28.4137 20.9377 28.9137 20.916C29.4138 20.8944 29.9038 21.061 30.287 21.383L30.414 21.5L32.041 23.126L32.215 22.884L32.53 22.431L32.735 22.123L32.941 21.794C33.249 21.314 33.618 20.857 34.267 21.036C34.4579 21.0888 34.6288 21.1971 34.7581 21.3472C34.8873 21.4973 34.9691 21.6824 34.993 21.879L35 22V28C35 29.377 34.5265 30.7121 33.6589 31.7814C32.7913 32.8507 31.5824 33.5892 30.235 33.873L30 33.917V37.917C30.9518 37.7557 31.8508 37.3673 32.6207 36.7849C33.3906 36.2025 34.0088 35.4431 34.423 34.571C34.4793 34.4524 34.5585 34.346 34.6559 34.2579C34.7534 34.1698 34.8672 34.1018 34.991 34.0578C35.1147 34.0137 35.2459 33.9945 35.3771 34.0011C35.5083 34.0078 35.6369 34.0402 35.7555 34.0965C35.8742 34.1528 35.9805 34.232 36.0686 34.3294C36.1567 34.4269 36.2247 34.5407 36.2687 34.6645C36.3128 34.7882 36.332 34.9194 36.3254 35.0506C36.3188 35.1818 36.2863 35.3104 36.23 35.429C35.6537 36.6434 34.7809 37.6932 33.6921 38.4816C32.6034 39.2699 31.3336 39.7715 30 39.94C30 40.506 29.593 41.001 29 41.001C28.407 41.001 28 40.506 28 39.939C26.6666 39.7707 25.397 39.2694 24.3082 38.4814C23.2195 37.6934 22.3466 36.6441 21.77 35.43C21.6562 35.1904 21.6423 34.9154 21.7313 34.6655C21.8203 34.4156 22.0049 34.2113 22.2445 34.0975C22.4841 33.9837 22.7591 33.9698 23.009 34.0588C23.2589 34.1478 23.4632 34.3324 23.577 34.572C23.9726 35.4047 24.5544 36.1353 25.2775 36.7072C26.0006 37.2791 26.8455 37.6769 27.747 37.87L28 37.918V33.918C26.6437 33.6884 25.4075 32.9999 24.4982 31.9677C23.5889 30.9356 23.0618 29.6224 23.005 28.248L23 28V22C22.9999 21.7813 23.0716 21.5685 23.204 21.3944C23.3364 21.2203 23.5222 21.0944 23.733 21.036C24.33 20.871 24.692 21.248 24.987 21.685L25.332 22.227L25.47 22.431L25.785 22.884L25.959 23.126L27.586 21.5ZM33 25.163C32.488 25.8 31.889 26.467 31.265 26.987C30.67 27.483 29.872 28 29 28C28.128 28 27.33 27.483 26.735 26.987C26.215 26.554 25.713 26.019 25.263 25.484L25 25.164V28C25 29.0436 25.4078 30.0458 26.1364 30.7929C26.865 31.54 27.8567 31.9727 28.9 31.9988C29.9432 32.0249 30.9553 31.6423 31.7204 30.9326C32.4854 30.2229 32.9428 29.2423 32.995 28.2L33 28V25.163ZM29 22.914L27.226 24.688L27.611 25.108C28.011 25.532 28.522 26 29 26C29.478 26 29.99 25.532 30.39 25.108L30.774 24.688L29 22.914Z" fill="black"/>
</g>
<defs>
<clipPath id="clip0_31_291">
<rect width="24" height="24" fill="white" transform="translate(17 19)"/>
</clipPath>
</defs>
</svg>
