<svg width="60" height="60" viewBox="0 0 60 60" fill="none" xmlns="http://www.w3.org/2000/svg">
<rect x="2.44897" y="2.44898" width="57.551" height="57.551" fill="#D9D9D9"/>
<rect x="1" y="1" width="55.551" height="55.551" fill="#4994EC" stroke="black" stroke-width="2"/>
<path d="M42.8138 27.7855C42.7225 27.6269 42.5992 27.4884 42.4515 27.3784C42.3038 27.2684 42.1347 27.1894 41.9548 27.146C40.7417 26.8567 39.4809 26.8178 38.2518 27.0319C38.7741 24.771 38.4375 23.0012 38.0892 21.9736C37.9845 21.6502 37.7615 21.3766 37.4634 21.2058C37.1653 21.0349 36.8133 20.9789 36.4757 21.0487C35.2782 21.3153 34.146 21.812 33.1441 22.5102C32.4355 20.8387 31.295 19.3784 29.8358 18.274C29.5947 18.0962 29.3014 18 29 18C28.6986 18 28.4053 18.0962 28.1642 18.274C26.705 19.3784 25.5645 20.8387 24.8559 22.5102C23.854 21.812 22.7218 21.3153 21.5243 21.0487C21.1867 20.9789 20.8347 21.0349 20.5366 21.2058C20.2385 21.3766 20.0155 21.6502 19.9108 21.9736C19.5625 23.0012 19.2259 24.771 19.7482 27.0319C18.5191 26.8178 17.2583 26.8567 16.0452 27.146C15.8653 27.1894 15.6962 27.2684 15.5485 27.3784C15.4008 27.4884 15.2775 27.6269 15.1862 27.7855C15.0021 28.1043 14.9521 28.4813 15.0469 28.8359C15.4416 30.2061 16.6488 32.8323 20.3054 34.9105C23.962 36.9886 27.2472 37 29 37C30.7528 37 34.0148 37 37.6946 34.9105C41.3744 32.8209 42.5584 30.2061 42.9531 28.8359C43.0479 28.4813 42.9979 28.1043 42.8138 27.7855ZM36.673 21.9507C36.7837 21.9253 36.9 21.9417 36.9989 21.9967C37.0979 22.0517 37.1721 22.1412 37.207 22.2476C37.5437 23.2752 37.8803 25.1022 37.1722 27.4543C37.1606 27.4772 37.1606 27.5 37.149 27.5228C36.8707 28.4264 36.4808 29.2931 35.9882 30.1034C34.995 31.7777 33.6731 33.241 32.0994 34.4081L31.8092 34.6136C32.9816 33.095 34.1076 30.7656 34.1076 27.4087C34.1193 26.0445 33.9077 24.6874 33.4808 23.3894C34.4286 22.6917 35.5169 22.2012 36.673 21.9507V21.9507ZM28.7214 19.0048C28.8018 18.9455 28.8995 18.9135 29 18.9135C29.1005 18.9135 29.1982 18.9455 29.2786 19.0048C30.451 19.8726 33.179 22.4075 33.179 27.4087C33.179 30.0463 32.436 32.3071 30.985 34.1454C30.4275 34.8651 29.7575 35.4933 29 36.0066C28.2425 35.4933 27.5725 34.8651 27.015 34.1454C25.564 32.3071 24.821 30.0463 24.821 27.4087C24.821 22.4075 27.549 19.8726 28.7214 19.0048V19.0048ZM20.793 22.2476C20.8279 22.1412 20.9021 22.0517 21.0011 21.9967C21.1 21.9417 21.2163 21.9253 21.327 21.9507C22.4831 22.2012 23.5714 22.6917 24.5192 23.3894C24.0923 24.6874 23.8807 26.0445 23.8924 27.4087C23.8924 30.7656 25.0184 33.095 26.1908 34.6136L25.9006 34.4081C24.3269 33.241 23.005 31.7777 22.0118 30.1034C21.5189 29.2892 21.1291 28.4187 20.851 27.5114L20.8278 27.4543C20.1197 25.1022 20.4563 23.2752 20.793 22.2476V22.2476ZM15.9407 28.5847C15.9249 28.5275 15.9208 28.4677 15.9288 28.4089C15.9368 28.35 15.9566 28.2934 15.9872 28.2422C16.0514 28.1401 16.15 28.0633 16.2658 28.0252C17.5027 27.744 18.7881 27.7401 20.0268 28.0138C20.3279 28.8999 20.7208 29.7531 21.1993 30.5601C22.6967 33.1178 24.8791 34.9447 26.6435 35.9952C24.5711 35.7956 22.5672 35.1567 20.7698 34.1226C17.3918 32.2043 16.3006 29.8293 15.9407 28.5847ZM42.0593 28.5847C41.6994 29.8293 40.6082 32.2043 37.2302 34.1226C35.4328 35.1567 33.4289 35.7956 31.3565 35.9952C33.1209 34.9447 35.3033 33.1178 36.8007 30.5601C37.2792 29.7531 37.6721 28.8999 37.9732 28.0138C39.2119 27.7401 40.4973 27.744 41.7342 28.0252C41.85 28.0633 41.9486 28.1401 42.0128 28.2422C42.0434 28.2934 42.0632 28.35 42.0712 28.4089C42.0792 28.4677 42.0751 28.5275 42.0593 28.5847V28.5847Z" fill="black"/>
</svg>
