<svg width="98" height="98" viewBox="0 0 98 98" fill="none" xmlns="http://www.w3.org/2000/svg">
<rect x="4" y="4" width="94" height="94" fill="#D9D9D9"/>
<rect x="1" y="1" width="92" height="92" fill="#4994EC" stroke="black" stroke-width="2"/>
<path d="M43.9841 49.808C43.9841 49.312 44.0321 48.824 44.1281 48.344C44.2241 47.864 44.3841 47.44 44.6081 47.072C44.8481 46.704 45.1601 46.408 45.5441 46.184C45.9281 45.944 46.4081 45.824 46.9841 45.824C47.5601 45.824 48.0401 45.944 48.4241 46.184C48.8241 46.408 49.1361 46.704 49.3601 47.072C49.6001 47.44 49.7681 47.864 49.8641 48.344C49.9601 48.824 50.0081 49.312 50.0081 49.808C50.0081 50.304 49.9601 50.792 49.8641 51.272C49.7681 51.736 49.6001 52.16 49.3601 52.544C49.1361 52.912 48.8241 53.208 48.4241 53.432C48.0401 53.656 47.5601 53.768 46.9841 53.768C46.4081 53.768 45.9281 53.656 45.5441 53.432C45.1601 53.208 44.8481 52.912 44.6081 52.544C44.3841 52.16 44.2241 51.736 44.1281 51.272C44.0321 50.792 43.9841 50.304 43.9841 49.808ZM40.5761 49.808C40.5761 50.8 40.7281 51.696 41.0321 52.496C41.3361 53.296 41.7681 53.984 42.3281 54.56C42.8881 55.12 43.5601 55.552 44.3441 55.856C45.1281 56.16 46.0081 56.312 46.9841 56.312C47.9601 56.312 48.8401 56.16 49.6241 55.856C50.4241 55.552 51.1041 55.12 51.6641 54.56C52.2241 53.984 52.6561 53.296 52.9601 52.496C53.2641 51.696 53.4161 50.8 53.4161 49.808C53.4161 48.816 53.2641 47.92 52.9601 47.12C52.6561 46.304 52.2241 45.616 51.6641 45.056C51.1041 44.48 50.4241 44.04 49.6241 43.736C48.8401 43.416 47.9601 43.256 46.9841 43.256C46.0081 43.256 45.1281 43.416 44.3441 43.736C43.5601 44.04 42.8881 44.48 42.3281 45.056C41.7681 45.616 41.3361 46.304 41.0321 47.12C40.7281 47.92 40.5761 48.816 40.5761 49.808Z" fill="black"/>
</svg>
