<svg width="276" height="316" viewBox="0 0 276 316" fill="none" xmlns="http://www.w3.org/2000/svg">
<rect width="276" height="315.429" fill="#D9D9D9"/>
<rect x="12.8286" y="12.8286" width="77.4204" height="77.4204" fill="#4994EC" stroke="black" stroke-width="2"/>
<rect x="12.8286" y="99.5714" width="77.4204" height="77.4204" fill="#4994EC" stroke="black" stroke-width="2"/>
<rect x="12.8286" y="186.314" width="77.4204" height="77.4204" fill="#4994EC" stroke="black" stroke-width="2"/>
<rect x="97.8816" y="12.8286" width="77.4204" height="77.4204" fill="#4994EC" stroke="black" stroke-width="2"/>
<rect x="97.8816" y="99.5714" width="77.4204" height="77.4204" fill="#4994EC" stroke="black" stroke-width="2"/>
<rect x="97.8816" y="186.314" width="77.4204" height="77.4204" fill="#4994EC" stroke="black" stroke-width="2"/>
<rect x="184.624" y="12.8286" width="77.4204" height="77.4204" fill="#4994EC" stroke="black" stroke-width="2"/>
<rect x="184.624" y="99.5714" width="77.4204" height="77.4204" fill="#4994EC" stroke="black" stroke-width="2"/>
<rect x="184.624" y="186.314" width="77.4204" height="77.4204" fill="#4994EC" stroke="black" stroke-width="2"/>
<path d="M133.698 137.808C133.698 137.312 133.746 136.824 133.842 136.344C133.938 135.864 134.098 135.44 134.322 135.072C134.562 134.704 134.874 134.408 135.258 134.184C135.642 133.944 136.122 133.824 136.698 133.824C137.274 133.824 137.754 133.944 138.138 134.184C138.538 134.408 138.85 134.704 139.074 135.072C139.314 135.44 139.482 135.864 139.578 136.344C139.674 136.824 139.722 137.312 139.722 137.808C139.722 138.304 139.674 138.792 139.578 139.272C139.482 139.736 139.314 140.16 139.074 140.544C138.85 140.912 138.538 141.208 138.138 141.432C137.754 141.656 137.274 141.768 136.698 141.768C136.122 141.768 135.642 141.656 135.258 141.432C134.874 141.208 134.562 140.912 134.322 140.544C134.098 140.16 133.938 139.736 133.842 139.272C133.746 138.792 133.698 138.304 133.698 137.808ZM130.29 137.808C130.29 138.8 130.442 139.696 130.746 140.496C131.05 141.296 131.482 141.984 132.042 142.56C132.602 143.12 133.274 143.552 134.058 143.856C134.842 144.16 135.722 144.312 136.698 144.312C137.674 144.312 138.554 144.16 139.338 143.856C140.138 143.552 140.818 143.12 141.378 142.56C141.938 141.984 142.37 141.296 142.674 140.496C142.978 139.696 143.13 138.8 143.13 137.808C143.13 136.816 142.978 135.92 142.674 135.12C142.37 134.304 141.938 133.616 141.378 133.056C140.818 132.48 140.138 132.04 139.338 131.736C138.554 131.416 137.674 131.256 136.698 131.256C135.722 131.256 134.842 131.416 134.058 131.736C133.274 132.04 132.602 132.48 132.042 133.056C131.482 133.616 131.05 134.304 130.746 135.12C130.442 135.92 130.29 136.816 130.29 137.808Z" fill="black"/>
<path d="M219.698 52.808C219.698 52.312 219.746 51.824 219.842 51.344C219.938 50.864 220.098 50.44 220.322 50.072C220.562 49.704 220.874 49.408 221.258 49.184C221.642 48.944 222.122 48.824 222.698 48.824C223.274 48.824 223.754 48.944 224.138 49.184C224.538 49.408 224.85 49.704 225.074 50.072C225.314 50.44 225.482 50.864 225.578 51.344C225.674 51.824 225.722 52.312 225.722 52.808C225.722 53.304 225.674 53.792 225.578 54.272C225.482 54.736 225.314 55.16 225.074 55.544C224.85 55.912 224.538 56.208 224.138 56.432C223.754 56.656 223.274 56.768 222.698 56.768C222.122 56.768 221.642 56.656 221.258 56.432C220.874 56.208 220.562 55.912 220.322 55.544C220.098 55.16 219.938 54.736 219.842 54.272C219.746 53.792 219.698 53.304 219.698 52.808ZM216.29 52.808C216.29 53.8 216.442 54.696 216.746 55.496C217.05 56.296 217.482 56.984 218.042 57.56C218.602 58.12 219.274 58.552 220.058 58.856C220.842 59.16 221.722 59.312 222.698 59.312C223.674 59.312 224.554 59.16 225.338 58.856C226.138 58.552 226.818 58.12 227.378 57.56C227.938 56.984 228.37 56.296 228.674 55.496C228.978 54.696 229.13 53.8 229.13 52.808C229.13 51.816 228.978 50.92 228.674 50.12C228.37 49.304 227.938 48.616 227.378 48.056C226.818 47.48 226.138 47.04 225.338 46.736C224.554 46.416 223.674 46.256 222.698 46.256C221.722 46.256 220.842 46.416 220.058 46.736C219.274 47.04 218.602 47.48 218.042 48.056C217.482 48.616 217.05 49.304 216.746 50.12C216.442 50.92 216.29 51.816 216.29 52.808Z" fill="black"/>
<path d="M48.6983 223.808C48.6983 223.312 48.7463 222.824 48.8423 222.344C48.9383 221.864 49.0983 221.44 49.3223 221.072C49.5623 220.704 49.8743 220.408 50.2583 220.184C50.6423 219.944 51.1223 219.824 51.6983 219.824C52.2743 219.824 52.7543 219.944 53.1383 220.184C53.5383 220.408 53.8503 220.704 54.0743 221.072C54.3143 221.44 54.4823 221.864 54.5783 222.344C54.6743 222.824 54.7223 223.312 54.7223 223.808C54.7223 224.304 54.6743 224.792 54.5783 225.272C54.4823 225.736 54.3143 226.16 54.0743 226.544C53.8503 226.912 53.5383 227.208 53.1383 227.432C52.7543 227.656 52.2743 227.768 51.6983 227.768C51.1223 227.768 50.6423 227.656 50.2583 227.432C49.8743 227.208 49.5623 226.912 49.3223 226.544C49.0983 226.16 48.9383 225.736 48.8423 225.272C48.7463 224.792 48.6983 224.304 48.6983 223.808ZM45.2903 223.808C45.2903 224.8 45.4423 225.696 45.7463 226.496C46.0503 227.296 46.4823 227.984 47.0423 228.56C47.6023 229.12 48.2743 229.552 49.0583 229.856C49.8423 230.16 50.7223 230.312 51.6983 230.312C52.6743 230.312 53.5543 230.16 54.3383 229.856C55.1383 229.552 55.8183 229.12 56.3783 228.56C56.9383 227.984 57.3703 227.296 57.6743 226.496C57.9783 225.696 58.1303 224.8 58.1303 223.808C58.1303 222.816 57.9783 221.92 57.6743 221.12C57.3703 220.304 56.9383 219.616 56.3783 219.056C55.8183 218.48 55.1383 218.04 54.3383 217.736C53.5543 217.416 52.6743 217.256 51.6983 217.256C50.7223 217.256 49.8423 217.416 49.0583 217.736C48.2743 218.04 47.6023 218.48 47.0423 219.056C46.4823 219.616 46.0503 220.304 45.7463 221.12C45.4423 221.92 45.2903 222.816 45.2903 223.808Z" fill="black"/>
<path d="M220.733 223.472L216.269 230H220.085L222.677 226.088L225.269 230H229.157L224.573 223.4L228.653 217.592H224.885L222.725 220.832L220.541 217.592H216.653L220.733 223.472Z" fill="black"/>
<path d="M134.733 223.472L130.269 230H134.085L136.677 226.088L139.269 230H143.157L138.573 223.4L142.653 217.592H138.885L136.725 220.832L134.541 217.592H130.653L134.733 223.472Z" fill="black"/>
<path d="M220.733 137.472L216.269 144H220.085L222.677 140.088L225.269 144H229.157L224.573 137.4L228.653 131.592H224.885L222.725 134.832L220.541 131.592H216.653L220.733 137.472Z" fill="black"/>
<path d="M84.3164 284.706V280.986H80.9084V284.706H78.8444V286.986H80.9084V294.306C80.9084 294.93 81.0124 295.434 81.2204 295.818C81.4284 296.202 81.7084 296.498 82.0604 296.706C82.4284 296.914 82.8444 297.05 83.3084 297.114C83.7884 297.194 84.2924 297.234 84.8204 297.234C85.1564 297.234 85.5004 297.226 85.8524 297.21C86.2044 297.194 86.5244 297.162 86.8124 297.114V294.474C86.6524 294.506 86.4844 294.53 86.3084 294.546C86.1324 294.562 85.9484 294.57 85.7564 294.57C85.1804 294.57 84.7964 294.474 84.6044 294.282C84.4124 294.09 84.3164 293.706 84.3164 293.13V286.986H86.8124V284.706H84.3164ZM91.9379 282.786V279.978H88.5299V282.786H91.9379ZM88.5299 284.706V297.114H91.9379V284.706H88.5299ZM103.069 289.074H106.405C106.357 288.274 106.165 287.586 105.829 287.01C105.493 286.418 105.053 285.93 104.509 285.546C103.981 285.146 103.373 284.85 102.685 284.658C102.013 284.466 101.309 284.37 100.573 284.37C99.5654 284.37 98.6694 284.538 97.8854 284.874C97.1014 285.21 96.4374 285.682 95.8934 286.29C95.3494 286.882 94.9334 287.594 94.6454 288.426C94.3734 289.242 94.2374 290.13 94.2374 291.09C94.2374 292.018 94.3894 292.874 94.6934 293.658C94.9974 294.426 95.4214 295.09 95.9654 295.65C96.5094 296.21 97.1654 296.65 97.9334 296.97C98.7174 297.274 99.5734 297.426 100.501 297.426C102.149 297.426 103.501 296.994 104.557 296.13C105.613 295.266 106.253 294.01 106.477 292.362H103.189C103.077 293.13 102.797 293.746 102.349 294.21C101.917 294.658 101.293 294.882 100.477 294.882C99.9494 294.882 99.5014 294.762 99.1334 294.522C98.7654 294.282 98.4694 293.978 98.2454 293.61C98.0374 293.226 97.8854 292.802 97.7894 292.338C97.6934 291.874 97.6454 291.418 97.6454 290.97C97.6454 290.506 97.6934 290.042 97.7894 289.578C97.8854 289.098 98.0454 288.666 98.2694 288.282C98.5094 287.882 98.8134 287.562 99.1814 287.322C99.5494 287.066 100.005 286.938 100.549 286.938C102.005 286.938 102.845 287.65 103.069 289.074ZM119.402 284.706V280.986H115.994V284.706H113.93V286.986H115.994V294.306C115.994 294.93 116.098 295.434 116.306 295.818C116.514 296.202 116.794 296.498 117.146 296.706C117.514 296.914 117.93 297.05 118.394 297.114C118.874 297.194 119.378 297.234 119.906 297.234C120.242 297.234 120.586 297.226 120.938 297.21C121.29 297.194 121.61 297.162 121.898 297.114V294.474C121.738 294.506 121.57 294.53 121.394 294.546C121.218 294.562 121.034 294.57 120.842 294.57C120.266 294.57 119.882 294.474 119.69 294.282C119.498 294.09 119.402 293.706 119.402 293.13V286.986H121.898V284.706H119.402ZM123.376 288.522C123.424 287.722 123.624 287.058 123.976 286.53C124.328 286.002 124.776 285.578 125.32 285.258C125.864 284.938 126.472 284.714 127.144 284.586C127.832 284.442 128.52 284.37 129.208 284.37C129.832 284.37 130.464 284.418 131.104 284.514C131.744 284.594 132.328 284.762 132.856 285.018C133.384 285.274 133.816 285.634 134.152 286.098C134.488 286.546 134.656 287.146 134.656 287.898V294.354C134.656 294.914 134.688 295.45 134.752 295.962C134.816 296.474 134.928 296.858 135.088 297.114H131.632C131.568 296.922 131.512 296.73 131.464 296.538C131.432 296.33 131.408 296.122 131.392 295.914C130.848 296.474 130.208 296.866 129.472 297.09C128.736 297.314 127.984 297.426 127.216 297.426C126.624 297.426 126.072 297.354 125.56 297.21C125.048 297.066 124.6 296.842 124.216 296.538C123.832 296.234 123.528 295.85 123.304 295.386C123.096 294.922 122.992 294.37 122.992 293.73C122.992 293.026 123.112 292.45 123.352 292.002C123.608 291.538 123.928 291.17 124.312 290.898C124.712 290.626 125.16 290.426 125.656 290.298C126.168 290.154 126.68 290.042 127.192 289.962C127.704 289.882 128.208 289.818 128.704 289.77C129.2 289.722 129.64 289.65 130.024 289.554C130.408 289.458 130.712 289.322 130.936 289.146C131.16 288.954 131.264 288.682 131.248 288.33C131.248 287.962 131.184 287.674 131.056 287.466C130.944 287.242 130.784 287.074 130.576 286.962C130.384 286.834 130.152 286.754 129.88 286.722C129.624 286.674 129.344 286.65 129.04 286.65C128.368 286.65 127.84 286.794 127.456 287.082C127.072 287.37 126.848 287.85 126.784 288.522H123.376ZM131.248 291.042C131.104 291.17 130.92 291.274 130.696 291.354C130.488 291.418 130.256 291.474 130 291.522C129.76 291.57 129.504 291.61 129.232 291.642C128.96 291.674 128.688 291.714 128.416 291.762C128.16 291.81 127.904 291.874 127.648 291.954C127.408 292.034 127.192 292.146 127 292.29C126.824 292.418 126.68 292.586 126.568 292.794C126.456 293.002 126.4 293.266 126.4 293.586C126.4 293.89 126.456 294.146 126.568 294.354C126.68 294.562 126.832 294.73 127.024 294.858C127.216 294.97 127.44 295.05 127.696 295.098C127.952 295.146 128.216 295.17 128.488 295.17C129.16 295.17 129.68 295.058 130.048 294.834C130.416 294.61 130.688 294.346 130.864 294.042C131.04 293.722 131.144 293.402 131.176 293.082C131.224 292.762 131.248 292.506 131.248 292.314V291.042ZM145.749 289.074H149.085C149.037 288.274 148.845 287.586 148.509 287.01C148.173 286.418 147.733 285.93 147.189 285.546C146.661 285.146 146.053 284.85 145.365 284.658C144.693 284.466 143.989 284.37 143.253 284.37C142.245 284.37 141.349 284.538 140.565 284.874C139.781 285.21 139.117 285.682 138.573 286.29C138.029 286.882 137.613 287.594 137.325 288.426C137.053 289.242 136.917 290.13 136.917 291.09C136.917 292.018 137.069 292.874 137.373 293.658C137.677 294.426 138.101 295.09 138.645 295.65C139.189 296.21 139.845 296.65 140.613 296.97C141.397 297.274 142.253 297.426 143.181 297.426C144.829 297.426 146.181 296.994 147.237 296.13C148.293 295.266 148.933 294.01 149.157 292.362H145.869C145.757 293.13 145.477 293.746 145.029 294.21C144.597 294.658 143.973 294.882 143.157 294.882C142.629 294.882 142.181 294.762 141.813 294.522C141.445 294.282 141.149 293.978 140.925 293.61C140.717 293.226 140.565 292.802 140.469 292.338C140.373 291.874 140.325 291.418 140.325 290.97C140.325 290.506 140.373 290.042 140.469 289.578C140.565 289.098 140.725 288.666 140.949 288.282C141.189 287.882 141.493 287.562 141.861 287.322C142.229 287.066 142.685 286.938 143.229 286.938C144.685 286.938 145.525 287.65 145.749 289.074ZM162.082 284.706V280.986H158.674V284.706H156.61V286.986H158.674V294.306C158.674 294.93 158.778 295.434 158.986 295.818C159.194 296.202 159.474 296.498 159.826 296.706C160.194 296.914 160.61 297.05 161.074 297.114C161.554 297.194 162.058 297.234 162.586 297.234C162.922 297.234 163.266 297.226 163.618 297.21C163.97 297.194 164.29 297.162 164.578 297.114V294.474C164.418 294.506 164.25 294.53 164.074 294.546C163.898 294.562 163.714 294.57 163.522 294.57C162.946 294.57 162.562 294.474 162.37 294.282C162.178 294.09 162.082 293.706 162.082 293.13V286.986H164.578V284.706H162.082ZM169.224 290.922C169.224 290.426 169.272 289.938 169.368 289.458C169.464 288.978 169.624 288.554 169.848 288.186C170.088 287.818 170.4 287.522 170.784 287.298C171.168 287.058 171.648 286.938 172.224 286.938C172.8 286.938 173.28 287.058 173.664 287.298C174.064 287.522 174.376 287.818 174.6 288.186C174.84 288.554 175.008 288.978 175.104 289.458C175.2 289.938 175.248 290.426 175.248 290.922C175.248 291.418 175.2 291.906 175.104 292.386C175.008 292.85 174.84 293.274 174.6 293.658C174.376 294.026 174.064 294.322 173.664 294.546C173.28 294.77 172.8 294.882 172.224 294.882C171.648 294.882 171.168 294.77 170.784 294.546C170.4 294.322 170.088 294.026 169.848 293.658C169.624 293.274 169.464 292.85 169.368 292.386C169.272 291.906 169.224 291.418 169.224 290.922ZM165.816 290.922C165.816 291.914 165.968 292.81 166.272 293.61C166.576 294.41 167.008 295.098 167.568 295.674C168.128 296.234 168.8 296.666 169.584 296.97C170.368 297.274 171.248 297.426 172.224 297.426C173.2 297.426 174.08 297.274 174.864 296.97C175.664 296.666 176.344 296.234 176.904 295.674C177.464 295.098 177.896 294.41 178.2 293.61C178.504 292.81 178.656 291.914 178.656 290.922C178.656 289.93 178.504 289.034 178.2 288.234C177.896 287.418 177.464 286.73 176.904 286.17C176.344 285.594 175.664 285.154 174.864 284.85C174.08 284.53 173.2 284.37 172.224 284.37C171.248 284.37 170.368 284.53 169.584 284.85C168.8 285.154 168.128 285.594 167.568 286.17C167.008 286.73 166.576 287.418 166.272 288.234C165.968 289.034 165.816 289.93 165.816 290.922ZM189.223 289.578H183.679C183.695 289.338 183.743 289.066 183.823 288.762C183.919 288.458 184.071 288.17 184.279 287.898C184.503 287.626 184.791 287.402 185.143 287.226C185.511 287.034 185.967 286.938 186.511 286.938C187.343 286.938 187.959 287.162 188.359 287.61C188.775 288.058 189.063 288.714 189.223 289.578ZM183.679 291.738H192.631C192.695 290.778 192.615 289.858 192.391 288.978C192.167 288.098 191.799 287.314 191.287 286.626C190.791 285.938 190.151 285.394 189.367 284.994C188.583 284.578 187.663 284.37 186.607 284.37C185.663 284.37 184.799 284.538 184.015 284.874C183.247 285.21 182.583 285.674 182.023 286.266C181.463 286.842 181.031 287.53 180.727 288.33C180.423 289.13 180.271 289.994 180.271 290.922C180.271 291.882 180.415 292.762 180.703 293.562C181.007 294.362 181.431 295.05 181.975 295.626C182.519 296.202 183.183 296.65 183.967 296.97C184.751 297.274 185.631 297.426 186.607 297.426C188.015 297.426 189.215 297.106 190.207 296.466C191.199 295.826 191.935 294.762 192.415 293.274H189.415C189.303 293.658 188.999 294.026 188.503 294.378C188.007 294.714 187.415 294.882 186.727 294.882C185.767 294.882 185.031 294.634 184.519 294.138C184.007 293.642 183.727 292.842 183.679 291.738Z" fill="black"/>
</svg>
