<svg width="60" height="60" viewBox="0 0 60 60" fill="none" xmlns="http://www.w3.org/2000/svg">
<rect x="2.44897" y="2.44898" width="57.551" height="57.551" fill="#D9D9D9"/>
<rect x="1" y="1" width="55.551" height="55.551" fill="#4994EC" stroke="black" stroke-width="2"/>
<path d="M26.094 30.09C26.2016 29.9291 26.3171 29.7736 26.44 29.624C26.1726 29.1198 26.0332 28.5577 26.034 27.987C25.3755 27.3338 25.0031 26.446 24.9986 25.5185C24.9941 24.591 25.3579 23.6996 26.01 23.04C26.0173 22.1213 26.3856 21.2422 27.0354 20.5927C27.6851 19.9431 28.5643 19.5751 29.483 19.568C29.8091 19.2297 30.2001 18.9608 30.6326 18.7773C31.0651 18.5937 31.5302 18.4994 32 18.5C32.943 18.5 33.799 18.873 34.428 19.48C34.8892 19.4778 35.3464 19.5666 35.7732 19.7415C36.2001 19.9163 36.5882 20.1737 36.9153 20.4989C37.2424 20.824 37.5021 21.2106 37.6795 21.6364C37.8569 22.0621 37.9485 22.5188 37.949 22.98C38.6192 23.6477 38.9972 24.554 39 25.5C39 26.45 38.621 27.313 38.006 27.943V28C38.0061 28.4644 37.9137 28.9241 37.7343 29.3525C37.5549 29.7808 37.2921 30.1691 36.9612 30.4949C36.6302 30.8206 36.2377 31.0773 35.8066 31.2498C35.3755 31.4224 34.9143 31.5074 34.45 31.5C33.819 32.118 32.954 32.5 32 32.5C31.04 32.5 30.17 32.113 29.537 31.487C28.9499 31.4879 28.3721 31.3407 27.857 31.059C27.3626 31.7346 27.1067 32.5554 27.1297 33.3922C27.1527 34.2291 27.4532 35.0346 27.984 35.682L29.774 37.866C29.9422 38.0711 30.0219 38.3347 29.9958 38.5986C29.9696 38.8626 29.8396 39.1054 29.6345 39.2735C29.4294 39.4416 29.1658 39.5214 28.9019 39.4953C28.6379 39.4691 28.3952 39.3391 28.227 39.134L26.437 36.95C26.0221 36.4447 25.6961 35.8726 25.473 35.258C24.9461 35.5508 24.3475 35.6894 23.7456 35.6581C23.1437 35.6268 22.5627 35.4268 22.069 35.081C21.101 34.402 20.274 32.22 19.589 28.534C22.731 28.711 24.786 29.139 25.755 29.817C25.875 29.902 25.989 29.993 26.095 30.091L26.094 30.09ZM30.359 29.486L30.945 30.066C31.225 30.343 31.598 30.5 32 30.5C32.4 30.5 32.77 30.346 33.05 30.071L33.646 29.487L34.481 29.5C35.335 29.5 36.006 28.829 36.006 28L35.993 27.143L36.574 26.547C36.847 26.267 37 25.898 37 25.5C37 25.09 36.837 24.71 36.55 24.428L35.944 23.835L35.949 22.988C35.949 22.151 35.278 21.479 34.449 21.479L33.626 21.484L33.041 20.92C32.7621 20.6495 32.3885 20.4987 32 20.5C31.7985 20.4994 31.599 20.5397 31.4136 20.6184C31.2281 20.6972 31.0605 20.8127 30.921 20.958L30.338 21.561L29.498 21.568C29.1043 21.5711 28.7277 21.7289 28.4493 22.0073C28.1709 22.2857 28.0131 22.6623 28.01 23.056L28.004 23.868L27.433 24.446C27.156 24.726 27 25.098 27 25.5C27 25.907 27.16 26.283 27.443 26.565L28.035 27.152V27.986C28.035 28.3838 28.193 28.7654 28.4743 29.0467C28.7556 29.328 29.1372 29.486 29.535 29.486H30.359V29.486ZM32 27.5C31.4696 27.5 30.9609 27.2893 30.5858 26.9142C30.2107 26.5391 30 26.0304 30 25.5C30 24.9696 30.2107 24.4609 30.5858 24.0858C30.9609 23.7107 31.4696 23.5 32 23.5C32.5304 23.5 33.0391 23.7107 33.4142 24.0858C33.7893 24.4609 34 24.9696 34 25.5C34 26.0304 33.7893 26.5391 33.4142 26.9142C33.0391 27.2893 32.5304 27.5 32 27.5ZM23.217 33.442C23.4807 33.6114 23.7997 33.6722 24.1072 33.6117C24.4147 33.5511 24.6868 33.3738 24.8665 33.1171C25.0462 32.8603 25.1196 32.5439 25.0712 32.2343C25.0228 31.9246 24.8565 31.6457 24.607 31.456C24.249 31.205 23.409 30.965 22.137 30.782C22.557 32.348 22.963 33.265 23.217 33.442Z" fill="black"/>
</svg>
