<svg width="158" height="181" viewBox="0 0 158 181" fill="none" xmlns="http://www.w3.org/2000/svg">
<rect width="158" height="180.571" fill="#D9D9D9"/>
<rect x="9.58698" y="10.7319" width="20.1427" height="20.1427" fill="#4994EC" stroke="black" stroke-width="2"/>
<rect x="80.6706" y="10.83" width="20.1427" height="20.1427" fill="#4994EC" stroke="black" stroke-width="2"/>
<rect x="9.58698" y="34.9161" width="20.1427" height="20.1427" fill="#4994EC" stroke="black" stroke-width="2"/>
<rect x="80.6706" y="35.0143" width="20.1427" height="20.1427" fill="#4994EC" stroke="black" stroke-width="2"/>
<rect x="9.58698" y="59.1004" width="20.1427" height="20.1427" fill="#4994EC" stroke="black" stroke-width="2"/>
<rect x="9.58698" y="83.5329" width="20.1427" height="20.1427" fill="#4994EC" stroke="black" stroke-width="2"/>
<rect x="9.58698" y="107.965" width="20.1427" height="20.1427" fill="#4994EC" stroke="black" stroke-width="2"/>
<rect x="9.58698" y="132.398" width="20.1427" height="20.1427" fill="#4994EC" stroke="black" stroke-width="2"/>
<rect x="80.6706" y="59.1985" width="20.1427" height="20.1427" fill="#4994EC" stroke="black" stroke-width="2"/>
<rect x="80.6706" y="83.6311" width="20.1427" height="20.1427" fill="#4994EC" stroke="black" stroke-width="2"/>
<rect x="80.6706" y="108.064" width="20.1427" height="20.1427" fill="#4994EC" stroke="black" stroke-width="2"/>
<rect x="80.6706" y="132.496" width="20.1427" height="20.1427" fill="#4994EC" stroke="black" stroke-width="2"/>
<rect x="33.3" y="10.7319" width="20.1427" height="20.1427" fill="#4994EC" stroke="black" stroke-width="2"/>
<rect x="104.384" y="10.83" width="20.1427" height="20.1427" fill="#4994EC" stroke="black" stroke-width="2"/>
<rect x="33.3" y="34.9161" width="20.1427" height="20.1427" fill="#4994EC" stroke="black" stroke-width="2"/>
<rect x="104.384" y="35.0143" width="20.1427" height="20.1427" fill="#4994EC" stroke="black" stroke-width="2"/>
<rect x="33.3" y="59.1004" width="20.1427" height="20.1427" fill="#4994EC" stroke="black" stroke-width="2"/>
<rect x="33.3" y="83.5329" width="20.1427" height="20.1427" fill="#4994EC" stroke="black" stroke-width="2"/>
<rect x="33.3" y="107.965" width="20.1427" height="20.1427" fill="#4994EC" stroke="black" stroke-width="2"/>
<rect x="33.3" y="132.398" width="20.1427" height="20.1427" fill="#4994EC" stroke="black" stroke-width="2"/>
<rect x="104.384" y="59.1985" width="20.1427" height="20.1427" fill="#4994EC" stroke="black" stroke-width="2"/>
<rect x="104.384" y="83.6311" width="20.1427" height="20.1427" fill="#4994EC" stroke="black" stroke-width="2"/>
<rect x="104.384" y="108.064" width="20.1427" height="20.1427" fill="#4994EC" stroke="black" stroke-width="2"/>
<rect x="104.384" y="132.496" width="20.1427" height="20.1427" fill="#4994EC" stroke="black" stroke-width="2"/>
<rect x="56.9119" y="10.7319" width="20.1427" height="20.1427" fill="#4994EC" stroke="black" stroke-width="2"/>
<rect x="127.995" y="10.83" width="20.1427" height="20.1427" fill="#4994EC" stroke="black" stroke-width="2"/>
<rect x="56.9119" y="34.9161" width="20.1427" height="20.1427" fill="#4994EC" stroke="black" stroke-width="2"/>
<rect x="127.995" y="35.0143" width="20.1427" height="20.1427" fill="#4994EC" stroke="black" stroke-width="2"/>
<rect x="56.9119" y="59.1004" width="20.1427" height="20.1427" fill="#4994EC" stroke="black" stroke-width="2"/>
<rect x="56.9119" y="83.5329" width="20.1427" height="20.1427" fill="#4994EC" stroke="black" stroke-width="2"/>
<rect x="56.9119" y="107.965" width="20.1427" height="20.1427" fill="#4994EC" stroke="black" stroke-width="2"/>
<rect x="56.9119" y="132.398" width="20.1427" height="20.1427" fill="#4994EC" stroke="black" stroke-width="2"/>
<rect x="127.995" y="59.1985" width="20.1427" height="20.1427" fill="#4994EC" stroke="black" stroke-width="2"/>
<rect x="127.995" y="83.6311" width="20.1427" height="20.1427" fill="#4994EC" stroke="black" stroke-width="2"/>
<rect x="127.995" y="108.064" width="20.1427" height="20.1427" fill="#4994EC" stroke="black" stroke-width="2"/>
<rect x="127.995" y="132.496" width="20.1427" height="20.1427" fill="#4994EC" stroke="black" stroke-width="2"/>
<path d="M32.4001 161.078V173.486H35.8081V166.286C35.8081 165.678 35.8961 165.19 36.0721 164.822C36.2481 164.438 36.4561 164.15 36.6961 163.958C36.9521 163.75 37.2081 163.614 37.4641 163.55C37.7361 163.47 37.9521 163.43 38.1121 163.43C38.6561 163.43 39.0641 163.526 39.3361 163.718C39.6241 163.894 39.8241 164.134 39.9361 164.438C40.0641 164.742 40.1361 165.078 40.1521 165.446C40.1681 165.798 40.1761 166.158 40.1761 166.526V173.486H43.5841V166.574C43.5841 166.19 43.6081 165.814 43.6561 165.446C43.7201 165.062 43.8321 164.726 43.9921 164.438C44.1681 164.134 44.4001 163.894 44.6881 163.718C44.9921 163.526 45.3841 163.43 45.8641 163.43C46.3441 163.43 46.7201 163.51 46.9921 163.67C47.2801 163.83 47.4961 164.046 47.6401 164.318C47.7841 164.59 47.8721 164.91 47.9041 165.278C47.9361 165.646 47.9521 166.038 47.9521 166.454V173.486H51.3601V165.182C51.3601 164.382 51.2481 163.702 51.0241 163.142C50.8001 162.566 50.4881 162.102 50.0881 161.75C49.6881 161.398 49.2081 161.142 48.6481 160.982C48.0881 160.822 47.4801 160.742 46.8241 160.742C45.9601 160.742 45.2081 160.95 44.5681 161.366C43.9441 161.782 43.4481 162.262 43.0801 162.806C42.7441 162.038 42.2481 161.502 41.5921 161.198C40.9521 160.894 40.2401 160.742 39.4561 160.742C38.6401 160.742 37.9121 160.918 37.2721 161.27C36.6481 161.622 36.1121 162.118 35.6641 162.758H35.6161V161.078H32.4001ZM62.4061 165.95H56.8621C56.8781 165.71 56.9261 165.438 57.0061 165.134C57.1021 164.83 57.2541 164.542 57.4621 164.27C57.6861 163.998 57.9741 163.774 58.3261 163.598C58.6941 163.406 59.1501 163.31 59.6941 163.31C60.5261 163.31 61.1421 163.534 61.5421 163.982C61.9581 164.43 62.2461 165.086 62.4061 165.95ZM56.8621 168.11H65.8141C65.8781 167.15 65.7981 166.23 65.5741 165.35C65.3501 164.47 64.9821 163.686 64.4701 162.998C63.9741 162.31 63.3341 161.766 62.5501 161.366C61.7661 160.95 60.8461 160.742 59.7901 160.742C58.8461 160.742 57.9821 160.91 57.1981 161.246C56.4301 161.582 55.7661 162.046 55.2061 162.638C54.6461 163.214 54.2141 163.902 53.9101 164.702C53.6061 165.502 53.4541 166.366 53.4541 167.294C53.4541 168.254 53.5981 169.134 53.8861 169.934C54.1901 170.734 54.6141 171.422 55.1581 171.998C55.7021 172.574 56.3661 173.022 57.1501 173.342C57.9341 173.646 58.8141 173.798 59.7901 173.798C61.1981 173.798 62.3981 173.478 63.3901 172.838C64.3821 172.198 65.1181 171.134 65.5981 169.646H62.5981C62.4861 170.03 62.1821 170.398 61.6861 170.75C61.1901 171.086 60.5981 171.254 59.9101 171.254C58.9501 171.254 58.2141 171.006 57.7021 170.51C57.1901 170.014 56.9101 169.214 56.8621 168.11ZM67.9314 161.078V173.486H71.3394V166.286C71.3394 165.678 71.4274 165.19 71.6034 164.822C71.7794 164.438 71.9874 164.15 72.2274 163.958C72.4834 163.75 72.7394 163.614 72.9954 163.55C73.2674 163.47 73.4834 163.43 73.6434 163.43C74.1874 163.43 74.5954 163.526 74.8674 163.718C75.1554 163.894 75.3554 164.134 75.4674 164.438C75.5954 164.742 75.6674 165.078 75.6834 165.446C75.6994 165.798 75.7074 166.158 75.7074 166.526V173.486H79.1154V166.574C79.1154 166.19 79.1394 165.814 79.1874 165.446C79.2514 165.062 79.3634 164.726 79.5234 164.438C79.6994 164.134 79.9314 163.894 80.2194 163.718C80.5234 163.526 80.9154 163.43 81.3954 163.43C81.8754 163.43 82.2514 163.51 82.5234 163.67C82.8114 163.83 83.0274 164.046 83.1714 164.318C83.3154 164.59 83.4034 164.91 83.4354 165.278C83.4674 165.646 83.4834 166.038 83.4834 166.454V173.486H86.8914V165.182C86.8914 164.382 86.7794 163.702 86.5554 163.142C86.3314 162.566 86.0194 162.102 85.6194 161.75C85.2194 161.398 84.7394 161.142 84.1794 160.982C83.6194 160.822 83.0114 160.742 82.3554 160.742C81.4914 160.742 80.7394 160.95 80.0994 161.366C79.4754 161.782 78.9794 162.262 78.6114 162.806C78.2754 162.038 77.7794 161.502 77.1234 161.198C76.4834 160.894 75.7714 160.742 74.9874 160.742C74.1714 160.742 73.4434 160.918 72.8034 161.27C72.1794 161.622 71.6434 162.118 71.1954 162.758H71.1474V161.078H67.9314ZM92.6094 167.294C92.6094 166.798 92.6574 166.31 92.7534 165.83C92.8494 165.35 93.0094 164.926 93.2334 164.558C93.4734 164.19 93.7854 163.894 94.1694 163.67C94.5534 163.43 95.0334 163.31 95.6094 163.31C96.1854 163.31 96.6654 163.43 97.0494 163.67C97.4494 163.894 97.7614 164.19 97.9854 164.558C98.2254 164.926 98.3934 165.35 98.4894 165.83C98.5854 166.31 98.6334 166.798 98.6334 167.294C98.6334 167.79 98.5854 168.278 98.4894 168.758C98.3934 169.222 98.2254 169.646 97.9854 170.03C97.7614 170.398 97.4494 170.694 97.0494 170.918C96.6654 171.142 96.1854 171.254 95.6094 171.254C95.0334 171.254 94.5534 171.142 94.1694 170.918C93.7854 170.694 93.4734 170.398 93.2334 170.03C93.0094 169.646 92.8494 169.222 92.7534 168.758C92.6574 168.278 92.6094 167.79 92.6094 167.294ZM89.2014 167.294C89.2014 168.286 89.3534 169.182 89.6574 169.982C89.9614 170.782 90.3934 171.47 90.9534 172.046C91.5134 172.606 92.1854 173.038 92.9694 173.342C93.7534 173.646 94.6334 173.798 95.6094 173.798C96.5854 173.798 97.4654 173.646 98.2494 173.342C99.0494 173.038 99.7294 172.606 100.289 172.046C100.849 171.47 101.281 170.782 101.585 169.982C101.889 169.182 102.041 168.286 102.041 167.294C102.041 166.302 101.889 165.406 101.585 164.606C101.281 163.79 100.849 163.102 100.289 162.542C99.7294 161.966 99.0494 161.526 98.2494 161.222C97.4654 160.902 96.5854 160.742 95.6094 160.742C94.6334 160.742 93.7534 160.902 92.9694 161.222C92.1854 161.526 91.5134 161.966 90.9534 162.542C90.3934 163.102 89.9614 163.79 89.6574 164.606C89.3534 165.406 89.2014 166.302 89.2014 167.294ZM104.257 161.078V173.486H107.665V167.894C107.665 167.334 107.721 166.814 107.833 166.334C107.945 165.854 108.129 165.438 108.385 165.086C108.657 164.718 109.009 164.43 109.441 164.222C109.873 164.014 110.401 163.91 111.025 163.91C111.233 163.91 111.449 163.926 111.673 163.958C111.897 163.974 112.089 163.998 112.249 164.03V160.862C111.977 160.782 111.729 160.742 111.505 160.742C111.073 160.742 110.657 160.806 110.257 160.934C109.857 161.062 109.481 161.246 109.129 161.486C108.777 161.71 108.465 161.99 108.193 162.326C107.921 162.646 107.705 162.998 107.545 163.382H107.497V161.078H104.257ZM119.705 175.022L124.889 161.078H121.361L118.649 169.574H118.601L115.793 161.078H112.169L116.513 172.718C116.609 172.958 116.657 173.214 116.657 173.486C116.657 173.854 116.545 174.19 116.321 174.494C116.113 174.798 115.785 174.974 115.337 175.022C115.001 175.038 114.665 175.03 114.329 174.998C113.993 174.966 113.665 174.934 113.345 174.902V177.71C113.697 177.742 114.041 177.766 114.377 177.782C114.729 177.814 115.081 177.83 115.433 177.83C116.601 177.83 117.513 177.614 118.169 177.182C118.825 176.75 119.337 176.03 119.705 175.022Z" fill="black"/>
</svg>
