<svg width="60" height="60" viewBox="0 0 60 60" fill="none" xmlns="http://www.w3.org/2000/svg">
<rect x="2.44897" y="2.44898" width="57.551" height="57.551" fill="#D9D9D9"/>
<rect x="1" y="1" width="55.551" height="55.551" fill="#4994EC" stroke="black" stroke-width="2"/>
<path d="M35.992 29C36.7568 28.909 37.4113 28.762 37.812 28.531C38.6093 28.0636 39.1894 27.2997 39.4256 26.4062C39.6619 25.5127 39.5351 24.562 39.073 23.7616C38.6108 22.9612 37.8509 22.376 36.9589 22.1339C36.067 21.8917 35.1155 22.0122 34.312 22.469C33.9113 22.7 33.4563 23.1935 32.996 23.8112C33.3005 23.1025 33.5 22.462 33.5 22C33.5 21.0717 33.1313 20.1815 32.4749 19.5251C31.8185 18.8687 30.9283 18.5 30 18.5C29.0718 18.5 28.1815 18.8687 27.5251 19.5251C26.8688 20.1815 26.5 21.0717 26.5 22C26.5 22.462 26.6995 23.1025 27.004 23.8112C26.5438 23.1935 26.0888 22.7 25.688 22.469C24.8846 22.0122 23.933 21.8917 23.0411 22.1339C22.1491 22.376 21.3892 22.9612 20.9271 23.7616C20.4649 24.562 20.3381 25.5127 20.5744 26.4062C20.8106 27.2997 21.3907 28.0636 22.188 28.531C22.5888 28.762 23.2433 28.909 24.008 29C23.2433 29.091 22.5888 29.238 22.188 29.469C21.7868 29.6971 21.4346 30.0024 21.1518 30.3672C20.869 30.732 20.6611 31.1491 20.5402 31.5946C20.4192 32.04 20.3876 32.505 20.4471 32.9627C20.5066 33.4205 20.656 33.8619 20.8868 34.2616C21.1176 34.6614 21.4252 35.0115 21.7919 35.2919C22.1586 35.5723 22.5771 35.7774 23.0233 35.8953C23.4695 36.0133 23.9347 36.0419 24.3921 35.9793C24.8494 35.9168 25.2898 35.7644 25.688 35.531C26.0888 35.3 26.5438 34.8065 27.004 34.1888C26.6995 34.8975 26.5 35.538 26.5 36C26.5 36.9283 26.8688 37.8185 27.5251 38.4749C28.1815 39.1313 29.0718 39.5 30 39.5C30.9283 39.5 31.8185 39.1313 32.4749 38.4749C33.1313 37.8185 33.5 36.9283 33.5 36C33.5 35.538 33.3005 34.8975 32.996 34.1888C33.4563 34.8065 33.9113 35.3 34.312 35.531C34.7102 35.7644 35.1507 35.9168 35.608 35.9793C36.0653 36.0419 36.5305 36.0133 36.9767 35.8953C37.423 35.7774 37.8415 35.5723 38.2081 35.2919C38.5748 35.0115 38.8824 34.6614 39.1132 34.2616C39.344 33.8619 39.4934 33.4205 39.5529 32.9627C39.6124 32.505 39.5808 32.04 39.4598 31.5946C39.3389 31.1491 39.1311 30.732 38.8482 30.3672C38.5654 30.0024 38.2133 29.6971 37.812 29.469C37.4113 29.238 36.7568 29.091 35.992 29V29ZM31.75 22C31.7324 22.1213 31.706 22.2412 31.6713 22.3587C31.603 22.5897 31.4963 22.875 31.351 23.2058C31.0179 23.9386 30.6458 24.653 30.2363 25.346L30 25.7485C29.9204 25.6148 29.8417 25.4806 29.7638 25.346C29.3542 24.653 28.9821 23.9386 28.649 23.2058C28.525 22.9302 28.4181 22.6474 28.3288 22.3587C28.294 22.2412 28.2677 22.1213 28.25 22C28.25 21.5359 28.4344 21.0908 28.7626 20.7626C29.0908 20.4344 29.5359 20.25 30 20.25C30.4641 20.25 30.9093 20.4344 31.2375 20.7626C31.5656 21.0908 31.75 21.5359 31.75 22V22ZM22.4225 24.625C22.6546 24.2231 23.0368 23.9298 23.4851 23.8097C23.9334 23.6896 24.4111 23.7524 24.813 23.9845C24.9098 24.0607 25.0011 24.1437 25.086 24.233C25.2505 24.408 25.443 24.6408 25.6565 24.933C26.0853 25.5158 26.535 26.2403 26.955 26.9683L27.1825 27.3743C27.0279 27.3764 26.8734 27.3775 26.7188 27.3777C25.913 27.3859 25.1075 27.3509 24.3055 27.2728C24.0053 27.2426 23.7073 27.1941 23.413 27.1275C23.2938 27.0986 23.1769 27.0611 23.063 27.0155C22.6611 26.7834 22.3678 26.4012 22.2477 25.9529C22.1276 25.5046 22.1905 25.0269 22.4225 24.625V24.625ZM24.813 34.0155C24.4113 34.2439 23.9355 34.3041 23.4896 34.1831C23.0436 34.062 22.6636 33.7694 22.4325 33.3692C22.2015 32.969 22.1381 32.4937 22.2562 32.0469C22.3743 31.6001 22.6644 31.2182 23.063 30.9845C23.0648 30.9845 23.091 30.9705 23.1453 30.9495C23.21 30.9268 23.2975 30.9005 23.413 30.8725C23.6475 30.8165 23.9468 30.7675 24.3055 30.7273C25.1075 30.6491 25.913 30.6141 26.7188 30.6223C26.8763 30.6223 27.0303 30.6222 27.1843 30.6257C27.1087 30.7615 27.0323 30.8969 26.955 31.0318C26.535 31.7598 26.0853 32.4843 25.6565 33.067C25.4807 33.3121 25.2895 33.5459 25.0843 33.767C24.9998 33.8561 24.9092 33.9392 24.813 34.0155V34.0155ZM31.75 36C31.75 36.4641 31.5656 36.9092 31.2375 37.2374C30.9093 37.5656 30.4641 37.75 30 37.75C29.5359 37.75 29.0908 37.5656 28.7626 37.2374C28.4344 36.9092 28.25 36.4641 28.25 36C28.2676 35.8781 28.294 35.7576 28.3288 35.6395C28.397 35.4102 28.5038 35.125 28.649 34.7942C28.9395 34.1327 29.342 33.3803 29.7638 32.654L30 32.2515L30.2363 32.654C30.658 33.3803 31.0588 34.1327 31.351 34.7942C31.4963 35.1267 31.603 35.4103 31.6713 35.6413C31.7069 35.7586 31.7332 35.8785 31.75 36V36ZM37.5775 24.625C37.8096 25.0269 37.8725 25.5046 37.7523 25.9529C37.6322 26.4012 37.3389 26.7834 36.937 27.0155C36.8231 27.0611 36.7062 27.0985 36.587 27.1275C36.3525 27.1835 36.0533 27.2325 35.6945 27.2728C34.9735 27.3515 34.123 27.3795 33.2813 27.3777C33.1238 27.3777 32.9698 27.3778 32.8158 27.3743L33.045 26.9683C33.465 26.2403 33.9148 25.5158 34.3435 24.933C34.5194 24.6879 34.7105 24.4541 34.9158 24.233C34.9963 24.1455 35.0645 24.0825 35.1153 24.0405C35.1608 24.002 35.1853 23.988 35.187 23.9845C35.589 23.7524 36.0666 23.6896 36.5149 23.8097C36.9632 23.9298 37.3454 24.2231 37.5775 24.625V24.625ZM35.187 34.0155C35.0909 33.9397 35.0003 33.8572 34.9158 33.7688C34.7109 33.5473 34.5198 33.3135 34.3435 33.0687C33.8745 32.4129 33.4411 31.7323 33.045 31.03C32.9684 30.8951 32.8925 30.7598 32.8175 30.624L33.2813 30.6205C34.1213 30.6187 34.9735 30.6468 35.6945 30.7255C36.0533 30.7658 36.3525 30.8148 36.587 30.8708C36.7025 30.8988 36.79 30.925 36.8548 30.9477L36.9388 30.9828C37.1394 31.0968 37.3155 31.2494 37.4569 31.4318C37.5983 31.6142 37.7022 31.8228 37.7627 32.0455C37.8232 32.2683 37.839 32.5008 37.8092 32.7296C37.7795 32.9585 37.7047 33.1792 37.5893 33.3791C37.474 33.5789 37.3202 33.754 37.1368 33.8942C36.9535 34.0344 36.7442 34.1369 36.5211 34.1959C36.298 34.2549 36.0654 34.2692 35.8367 34.2379C35.6081 34.2067 35.3879 34.1305 35.1888 34.0137L35.187 34.0155ZM30 30.75C29.5359 30.75 29.0908 30.5656 28.7626 30.2374C28.4344 29.9092 28.25 29.4641 28.25 29C28.25 28.5359 28.4344 28.0908 28.7626 27.7626C29.0908 27.4344 29.5359 27.25 30 27.25C30.4641 27.25 30.9093 27.4344 31.2375 27.7626C31.5656 28.0908 31.75 28.5359 31.75 29C31.75 29.4641 31.5656 29.9092 31.2375 30.2374C30.9093 30.5656 30.4641 30.75 30 30.75V30.75Z" fill="black"/>
</svg>
