<svg width="60" height="60" viewBox="0 0 60 60" fill="none" xmlns="http://www.w3.org/2000/svg">
<rect x="2.44897" y="2.44897" width="57.551" height="57.551" fill="#D9D9D9"/>
<rect x="1" y="1" width="55.551" height="55.551" fill="#4994EC" stroke="black" stroke-width="2"/>
<path d="M29 26.5C29 25.61 29.2639 24.74 29.7584 23.9999C30.2529 23.2599 30.9557 22.6831 31.7779 22.3425C32.6002 22.0019 33.505 21.9128 34.3779 22.0865C35.2508 22.2601 36.0526 22.6887 36.682 23.318C37.3113 23.9474 37.7399 24.7492 37.9135 25.6221C38.0872 26.495 37.9981 27.3998 37.6575 28.2221C37.3169 29.0443 36.7401 29.7471 36.0001 30.2416C35.26 30.7361 34.39 31 33.5 31M29 26.5C29 25.61 28.7361 24.74 28.2416 23.9999C27.7471 23.2599 27.0443 22.6831 26.2221 22.3425C25.3998 22.0019 24.495 21.9128 23.6221 22.0865C22.7492 22.2601 21.9474 22.6887 21.318 23.318C20.6887 23.9474 20.2601 24.7492 20.0865 25.6221C19.9128 26.495 20.0019 27.3998 20.3425 28.2221C20.6831 29.0443 21.2599 29.7471 21.9999 30.2416C22.74 30.7361 23.61 31 24.5 31M29 26.5V28M24.5 31C23.61 31 22.74 31.2639 21.9999 31.7584C21.2599 32.2529 20.6831 32.9557 20.3425 33.7779C20.0019 34.6002 19.9128 35.505 20.0865 36.3779C20.2601 37.2508 20.6887 38.0526 21.318 38.682C21.9474 39.3113 22.7492 39.7399 23.6221 39.9135C24.495 40.0872 25.3998 39.9981 26.2221 39.6575C27.0443 39.3169 27.7471 38.7401 28.2416 38.0001C28.7361 37.26 29 36.39 29 35.5M24.5 31H26M33.5 31C34.39 31 35.26 31.2639 36.0001 31.7584C36.7401 32.2529 37.3169 32.9557 37.6575 33.7779C37.9981 34.6002 38.0872 35.505 37.9135 36.3779C37.7399 37.2508 37.3113 38.0526 36.682 38.682C36.0526 39.3113 35.2508 39.7399 34.3779 39.9135C33.505 40.0872 32.6002 39.9981 31.7779 39.6575C30.9557 39.3169 30.2529 38.7401 29.7584 38.0001C29.2639 37.26 29 36.39 29 35.5M33.5 31H32M29 35.5V34" stroke="black" stroke-width="2" stroke-linecap="round" stroke-linejoin="round"/>
<path d="M29 34C30.6569 34 32 32.6569 32 31C32 29.3431 30.6569 28 29 28C27.3431 28 26 29.3431 26 31C26 32.6569 27.3431 34 29 34Z" stroke="black" stroke-width="2" stroke-linecap="round" stroke-linejoin="round"/>
<path d="M25 35L26.5 33.5M31.5 28.5L33 27M25 27L26.5 28.5M31.5 33.5L33 35" stroke="black" stroke-width="2" stroke-linecap="round" stroke-linejoin="round"/>
</svg>
