<svg width="60" height="60" viewBox="0 0 60 60" fill="none" xmlns="http://www.w3.org/2000/svg">
<rect x="2.44898" y="2.44897" width="57.551" height="57.551" fill="#D9D9D9"/>
<rect x="1" y="1" width="55.551" height="55.551" fill="#4994EC" stroke="black" stroke-width="2"/>
<g clip-path="url(#clip0_31_286)">
<path d="M30 26C30 26 31 24 31 22C31 20 29 18 29 18C29 18 27 20 27 22C27 24 28 26 28 26M29 32C29.7956 32 30.5587 31.6839 31.1213 31.1213C31.6839 30.5587 32 29.7956 32 29C32 28.2044 31.6839 27.4413 31.1213 26.8787C30.5587 26.3161 29.7956 26 29 26C28.2044 26 27.4413 26.3161 26.8787 26.8787C26.3161 27.4413 26 28.2044 26 29C26 29.7956 26.3161 30.5587 26.8787 31.1213C27.4413 31.6839 28.2044 32 29 32V32Z" stroke="black" stroke-width="1.5" stroke-miterlimit="1.5" stroke-linecap="round" stroke-linejoin="round"/>
<path d="M26 28C26 28 24 27 22 27C20 27 18 29 18 29C18 29 20 31 22 31C24 31 26 30 26 30M30 32C30 32 31 34 31 36C31 38 29 40 29 40C29 40 27 38 27 36C27 34 28 32 28 32M32 28C32 28 34 27 36 27C38 27 40 29 40 29C40 29 38 31 36 31C34 31 32 30 32 30M27.586 26.172C27.586 26.172 26.879 24.05 25.464 22.636C24.05 21.222 21.222 21.222 21.222 21.222C21.222 21.222 21.222 24.05 22.636 25.465C24.05 26.879 26.172 27.586 26.172 27.586M26.172 30.414C26.172 30.414 24.05 31.121 22.636 32.536C21.222 33.95 21.222 36.778 21.222 36.778C21.222 36.778 24.05 36.778 25.464 35.364C26.879 33.95 27.586 31.828 27.586 31.828M31.829 30.414C31.829 30.414 33.949 31.121 35.364 32.536C36.778 33.95 36.778 36.778 36.778 36.778C36.778 36.778 33.95 36.778 32.536 35.364C31.121 33.95 30.414 31.828 30.414 31.828M30.414 26.172C30.414 26.172 31.121 24.05 32.536 22.636C33.95 21.222 36.778 21.222 36.778 21.222C36.778 21.222 36.778 24.05 35.364 25.465C33.95 26.879 31.828 27.586 31.828 27.586" stroke="black" stroke-width="1.5" stroke-miterlimit="1.5" stroke-linecap="round" stroke-linejoin="round"/>
</g>
<defs>
<clipPath id="clip0_31_286">
<rect width="24" height="24" fill="white" transform="translate(17 17)"/>
</clipPath>
</defs>
</svg>
