<svg width="154" height="40" viewBox="0 0 154 40" fill="none" xmlns="http://www.w3.org/2000/svg">
<rect x="4" y="4" width="150" height="36" fill="#D9D9D9"/>
<rect x="1" y="1" width="148" height="34" fill="#4994EC" stroke="black" stroke-width="2"/>
<path d="M38.4832 17.952V14.528H40.4352C40.7232 14.528 41.0005 14.5493 41.2672 14.592C41.5339 14.6347 41.7685 14.72 41.9712 14.848C42.1739 14.9653 42.3339 15.136 42.4512 15.36C42.5792 15.584 42.6432 15.8773 42.6432 16.24C42.6432 16.6027 42.5792 16.896 42.4512 17.12C42.3339 17.344 42.1739 17.52 41.9712 17.648C41.7685 17.7653 41.5339 17.8453 41.2672 17.888C41.0005 17.9307 40.7232 17.952 40.4352 17.952H38.4832ZM35.9712 12.576V24H38.4832V19.904H41.1232C41.8379 19.904 42.4459 19.8027 42.9472 19.6C43.4485 19.3867 43.8539 19.1093 44.1632 18.768C44.4832 18.4267 44.7125 18.0373 44.8512 17.6C45.0005 17.152 45.0752 16.6987 45.0752 16.24C45.0752 15.7707 45.0005 15.3173 44.8512 14.88C44.7125 14.4427 44.4832 14.0533 44.1632 13.712C43.8539 13.3707 43.4485 13.0987 42.9472 12.896C42.4459 12.6827 41.8379 12.576 41.1232 12.576H35.9712ZM46.4671 12.576V24H48.7391V12.576H46.4671ZM50.4321 18.272C50.4641 17.7387 50.5974 17.296 50.8321 16.944C51.0667 16.592 51.3654 16.3093 51.7281 16.096C52.0907 15.8827 52.4961 15.7333 52.9441 15.648C53.4027 15.552 53.8614 15.504 54.3201 15.504C54.7361 15.504 55.1574 15.536 55.5841 15.6C56.0107 15.6533 56.4001 15.7653 56.7521 15.936C57.1041 16.1067 57.3921 16.3467 57.6161 16.656C57.8401 16.9547 57.9521 17.3547 57.9521 17.856V22.16C57.9521 22.5333 57.9734 22.8907 58.0161 23.232C58.0587 23.5733 58.1334 23.8293 58.2401 24H55.9361C55.8934 23.872 55.8561 23.744 55.8241 23.616C55.8027 23.4773 55.7867 23.3387 55.7761 23.2C55.4134 23.5733 54.9867 23.8347 54.4961 23.984C54.0054 24.1333 53.5041 24.208 52.9921 24.208C52.5974 24.208 52.2294 24.16 51.8881 24.064C51.5467 23.968 51.2481 23.8187 50.9921 23.616C50.7361 23.4133 50.5334 23.1573 50.3841 22.848C50.2454 22.5387 50.1761 22.1707 50.1761 21.744C50.1761 21.2747 50.2561 20.8907 50.4161 20.592C50.5867 20.2827 50.8001 20.0373 51.0561 19.856C51.3227 19.6747 51.6214 19.5413 51.9521 19.456C52.2934 19.36 52.6347 19.2853 52.9761 19.232C53.3174 19.1787 53.6534 19.136 53.9841 19.104C54.3147 19.072 54.6081 19.024 54.8641 18.96C55.1201 18.896 55.3227 18.8053 55.4721 18.688C55.6214 18.56 55.6907 18.3787 55.6801 18.144C55.6801 17.8987 55.6374 17.7067 55.5521 17.568C55.4774 17.4187 55.3707 17.3067 55.2321 17.232C55.1041 17.1467 54.9494 17.0933 54.7681 17.072C54.5974 17.04 54.4107 17.024 54.2081 17.024C53.7601 17.024 53.4081 17.12 53.1521 17.312C52.8961 17.504 52.7467 17.824 52.7041 18.272H50.4321ZM55.6801 19.952C55.5841 20.0373 55.4614 20.1067 55.3121 20.16C55.1734 20.2027 55.0187 20.24 54.8481 20.272C54.6881 20.304 54.5174 20.3307 54.3361 20.352C54.1547 20.3733 53.9734 20.4 53.7921 20.432C53.6214 20.464 53.4507 20.5067 53.2801 20.56C53.1201 20.6133 52.9761 20.688 52.8481 20.784C52.7307 20.8693 52.6347 20.9813 52.5601 21.12C52.4854 21.2587 52.4481 21.4347 52.4481 21.648C52.4481 21.8507 52.4854 22.0213 52.5601 22.16C52.6347 22.2987 52.7361 22.4107 52.8641 22.496C52.9921 22.5707 53.1414 22.624 53.3121 22.656C53.4827 22.688 53.6587 22.704 53.8401 22.704C54.2881 22.704 54.6347 22.6293 54.8801 22.48C55.1254 22.3307 55.3067 22.1547 55.4241 21.952C55.5414 21.7387 55.6107 21.5253 55.6321 21.312C55.6641 21.0987 55.6801 20.928 55.6801 20.8V19.952ZM63.7956 25.024L67.2516 15.728H64.8996L63.0916 21.392H63.0596L61.1876 15.728H58.7716L61.6676 23.488C61.7316 23.648 61.7636 23.8187 61.7636 24C61.7636 24.2453 61.6889 24.4693 61.5396 24.672C61.4009 24.8747 61.1822 24.992 60.8836 25.024C60.6596 25.0347 60.4356 25.0293 60.2116 25.008C59.9876 24.9867 59.7689 24.9653 59.5556 24.944V26.816C59.7902 26.8373 60.0196 26.8533 60.2436 26.864C60.4782 26.8853 60.7129 26.896 60.9476 26.896C61.7262 26.896 62.3342 26.752 62.7716 26.464C63.2089 26.176 63.5502 25.696 63.7956 25.024ZM75.5856 19.584L77.0736 15.392H77.1056L78.5456 19.584H75.5856ZM75.8256 12.576L71.5056 24H74.0336L74.9296 21.456H79.2016L80.0656 24H82.6736L78.4016 12.576H75.8256ZM87.2747 22.048C86.9227 22.048 86.6294 21.9733 86.3947 21.824C86.16 21.6747 85.968 21.4827 85.8187 21.248C85.68 21.0133 85.5787 20.752 85.5147 20.464C85.4614 20.1653 85.4347 19.8667 85.4347 19.568C85.4347 19.2587 85.4667 18.9653 85.5307 18.688C85.6054 18.4 85.7174 18.1493 85.8667 17.936C86.0267 17.712 86.2187 17.536 86.4427 17.408C86.6774 17.28 86.9547 17.216 87.2747 17.216C87.648 17.216 87.9574 17.2853 88.2027 17.424C88.448 17.5627 88.6454 17.7493 88.7947 17.984C88.944 18.2187 89.0507 18.4907 89.1147 18.8C89.1787 19.0987 89.2107 19.4187 89.2107 19.76C89.2107 20.0587 89.168 20.3467 89.0827 20.624C89.008 20.8907 88.8907 21.1307 88.7307 21.344C88.5707 21.5573 88.368 21.728 88.1227 21.856C87.8774 21.984 87.5947 22.048 87.2747 22.048ZM91.3707 23.472V15.728H89.2107V16.832H89.1787C88.9014 16.352 88.5547 16.0107 88.1387 15.808C87.7334 15.6053 87.2587 15.504 86.7147 15.504C86.1387 15.504 85.6267 15.616 85.1787 15.84C84.7414 16.064 84.3734 16.368 84.0747 16.752C83.776 17.1253 83.5467 17.5627 83.3867 18.064C83.2374 18.5547 83.1627 19.0667 83.1627 19.6C83.1627 20.1653 83.2267 20.704 83.3547 21.216C83.4934 21.7173 83.7067 22.16 83.9947 22.544C84.2827 22.9173 84.6507 23.216 85.0987 23.44C85.5467 23.6533 86.08 23.76 86.6987 23.76C87.2 23.76 87.6747 23.6587 88.1227 23.456C88.5814 23.2427 88.9334 22.9173 89.1787 22.48H89.2107V23.568C89.2214 24.1547 89.0774 24.64 88.7787 25.024C88.4907 25.408 88.0267 25.6 87.3867 25.6C86.9814 25.6 86.624 25.5147 86.3147 25.344C86.0054 25.184 85.7974 24.8907 85.6907 24.464H83.4347C83.4667 24.9333 83.5947 25.3333 83.8187 25.664C84.0534 26.0053 84.3414 26.2827 84.6827 26.496C85.0347 26.7093 85.4187 26.864 85.8347 26.96C86.2614 27.0667 86.6774 27.12 87.0827 27.12C88.032 27.12 88.7894 26.992 89.3547 26.736C89.92 26.48 90.352 26.1653 90.6507 25.792C90.9494 25.4293 91.1414 25.0347 91.2267 24.608C91.3227 24.1813 91.3707 23.8027 91.3707 23.472ZM93.1039 18.272C93.1359 17.7387 93.2693 17.296 93.5039 16.944C93.7386 16.592 94.0373 16.3093 94.3999 16.096C94.7626 15.8827 95.1679 15.7333 95.6159 15.648C96.0746 15.552 96.5333 15.504 96.9919 15.504C97.4079 15.504 97.8293 15.536 98.2559 15.6C98.6826 15.6533 99.0719 15.7653 99.4239 15.936C99.7759 16.1067 100.064 16.3467 100.288 16.656C100.512 16.9547 100.624 17.3547 100.624 17.856V22.16C100.624 22.5333 100.645 22.8907 100.688 23.232C100.731 23.5733 100.805 23.8293 100.912 24H98.6079C98.5653 23.872 98.5279 23.744 98.4959 23.616C98.4746 23.4773 98.4586 23.3387 98.4479 23.2C98.0853 23.5733 97.6586 23.8347 97.1679 23.984C96.6773 24.1333 96.1759 24.208 95.6639 24.208C95.2693 24.208 94.9013 24.16 94.5599 24.064C94.2186 23.968 93.9199 23.8187 93.6639 23.616C93.4079 23.4133 93.2053 23.1573 93.0559 22.848C92.9173 22.5387 92.8479 22.1707 92.8479 21.744C92.8479 21.2747 92.9279 20.8907 93.0879 20.592C93.2586 20.2827 93.4719 20.0373 93.7279 19.856C93.9946 19.6747 94.2933 19.5413 94.6239 19.456C94.9653 19.36 95.3066 19.2853 95.6479 19.232C95.9893 19.1787 96.3253 19.136 96.6559 19.104C96.9866 19.072 97.2799 19.024 97.5359 18.96C97.7919 18.896 97.9946 18.8053 98.1439 18.688C98.2933 18.56 98.3626 18.3787 98.3519 18.144C98.3519 17.8987 98.3093 17.7067 98.2239 17.568C98.1493 17.4187 98.0426 17.3067 97.9039 17.232C97.7759 17.1467 97.6213 17.0933 97.4399 17.072C97.2693 17.04 97.0826 17.024 96.8799 17.024C96.4319 17.024 96.0799 17.12 95.8239 17.312C95.5679 17.504 95.4186 17.824 95.3759 18.272H93.1039ZM98.3519 19.952C98.2559 20.0373 98.1333 20.1067 97.9839 20.16C97.8453 20.2027 97.6906 20.24 97.5199 20.272C97.3599 20.304 97.1893 20.3307 97.0079 20.352C96.8266 20.3733 96.6453 20.4 96.4639 20.432C96.2933 20.464 96.1226 20.5067 95.9519 20.56C95.7919 20.6133 95.6479 20.688 95.5199 20.784C95.4026 20.8693 95.3066 20.9813 95.2319 21.12C95.1573 21.2587 95.1199 21.4347 95.1199 21.648C95.1199 21.8507 95.1573 22.0213 95.2319 22.16C95.3066 22.2987 95.4079 22.4107 95.5359 22.496C95.6639 22.5707 95.8133 22.624 95.9839 22.656C96.1546 22.688 96.3306 22.704 96.5119 22.704C96.9599 22.704 97.3066 22.6293 97.5519 22.48C97.7973 22.3307 97.9786 22.1547 98.0959 21.952C98.2133 21.7387 98.2826 21.5253 98.3039 21.312C98.3359 21.0987 98.3519 20.928 98.3519 20.8V19.952ZM104.723 14.448V12.576H102.451V14.448H104.723ZM102.451 15.728V24H104.723V15.728H102.451ZM106.512 15.728V24H108.784V19.664C108.784 18.8213 108.923 18.2187 109.2 17.856C109.478 17.4827 109.926 17.296 110.544 17.296C111.088 17.296 111.467 17.4667 111.68 17.808C111.894 18.1387 112 18.6453 112 19.328V24H114.272V18.912C114.272 18.4 114.224 17.936 114.128 17.52C114.043 17.0933 113.888 16.736 113.664 16.448C113.44 16.1493 113.131 15.92 112.736 15.76C112.352 15.5893 111.856 15.504 111.248 15.504C110.768 15.504 110.299 15.616 109.84 15.84C109.382 16.0533 109.008 16.4 108.72 16.88H108.672V15.728H106.512Z" fill="black"/>
</svg>
