<svg width="60" height="60" viewBox="0 0 60 60" fill="none" xmlns="http://www.w3.org/2000/svg">
<rect x="2.44897" y="2.44898" width="57.551" height="57.551" fill="#D9D9D9"/>
<rect x="1" y="1" width="55.551" height="55.551" fill="#4994EC" stroke="black" stroke-width="2"/>
<path d="M30.7748 22.6625L30.8258 22.652C30.3075 21.8285 29.2568 20.75 27.315 20.75C25.875 20.75 24.495 21.74 23.895 23.21C23.0925 25.145 23.715 27.3425 25.5975 29.225C29.58 33.2 27.3375 37.5425 25.5975 39.2825C25.4475 39.425 25.26 39.5 25.065 39.5C24.9169 39.5008 24.772 39.4576 24.6485 39.3759C24.5251 39.2941 24.4287 39.1775 24.3716 39.0409C24.3145 38.9043 24.2994 38.7538 24.328 38.6085C24.3567 38.4632 24.4278 38.3297 24.5325 38.225L24.5348 38.2228C24.7275 38.0218 28.4168 34.1667 24.5325 30.2825C24.285 30.035 24.075 29.7875 23.865 29.5325V32.1725C23.865 33.5375 22.7625 34.64 21.3975 34.64H21.27C21.12 34.64 21 34.52 21 34.37V30.9575C21 29.7125 21.9375 28.685 23.145 28.5275C21.975 26.615 21.72 24.5225 22.5 22.6325C23.355 20.5775 25.245 19.25 27.315 19.25C30.1755 19.25 31.6905 20.882 32.391 22.3618L32.5485 22.3318C33.6125 22.1214 34.7164 22.3417 35.6181 22.9444C36.5198 23.547 37.1456 24.4827 37.3583 25.5463L38.3348 30.4363C38.4525 31.0663 38.0483 31.7112 37.386 31.8365L36.6555 31.979L36.645 31.9805L36.735 32.4425C36.7725 32.615 36.66 32.78 36.4875 32.8175L35.97 32.9225C35.5174 33.011 35.0488 32.9659 34.6213 32.7928C34.1939 32.6197 33.826 32.326 33.5625 31.9475C33.4619 32.3938 33.2341 32.8013 32.9066 33.1208C32.5792 33.4402 32.1661 33.6579 31.7175 33.7475L31.1925 33.8525C31.0275 33.89 30.8625 33.7775 30.8325 33.6125L30.7275 33.1287L30.672 33.1407H30.6705L29.9378 33.2885C29.7849 33.3208 29.6271 33.3223 29.4736 33.2931C29.3201 33.2639 29.1739 33.2044 29.0436 33.1183C28.9133 33.0321 28.8013 32.9209 28.7143 32.7911C28.6273 32.6613 28.567 32.5156 28.5368 32.3622V32.36L27.5618 27.4662C27.3511 26.4032 27.5712 25.3 28.1737 24.3992C28.7762 23.4984 29.7118 22.8737 30.7748 22.6625V22.6625ZM35.8868 25.8387C35.7517 25.1651 35.3549 24.5725 34.7836 24.1909C34.2122 23.8093 33.5128 23.6699 32.8388 23.8033H32.835C32.5493 23.8595 32.2875 23.9067 32.0295 23.9532H32.028C31.7123 24.0102 31.404 24.0657 31.071 24.1332H31.0688C30.3957 24.2666 29.8031 24.6618 29.4214 25.232C29.0397 25.8022 28.9 26.5006 29.0333 27.1737L29.9453 31.7562L30.3795 31.6693C30.8677 31.571 31.3172 31.3337 31.6738 30.9861C32.0304 30.6384 32.2789 30.1951 32.3895 29.7095C32.422 29.5682 32.4948 29.4394 32.599 29.3387C32.7032 29.2379 32.8344 29.1695 32.9767 29.1418C33.1189 29.114 33.2662 29.128 33.4007 29.1822C33.5351 29.2364 33.651 29.3284 33.7343 29.447C34.0218 29.8601 34.4235 30.1804 34.8903 30.3687C35.357 30.5571 35.8685 30.6053 36.3623 30.5075L36.3675 30.506L36.8025 30.422L35.8875 25.8395L35.8868 25.8387ZM38.2425 39.5H37.8675C36.795 39.5 35.9175 38.63 35.925 37.5575V34.715C35.925 34.5425 36.0675 34.4 36.24 34.4H36.615C37.1302 34.4 37.6243 34.6047 37.9886 34.9689C38.3528 35.3332 38.5575 35.8273 38.5575 36.3425V39.185C38.5575 39.3575 38.415 39.5 38.2425 39.5Z" fill="black"/>
</svg>
