<svg width="60" height="60" viewBox="0 0 60 60" fill="none" xmlns="http://www.w3.org/2000/svg">
<rect x="2.44897" y="2.44897" width="57.551" height="57.551" fill="#D9D9D9"/>
<rect x="1" y="1" width="55.551" height="55.551" fill="#4994EC" stroke="black" stroke-width="2"/>
<path d="M35.5 31C36.4283 31 37.3185 30.6313 37.9749 29.9749C38.6313 29.3185 39 28.4283 39 27.5C39 26.6464 38.8319 25.8012 38.5052 25.0126C38.1786 24.2239 37.6998 23.5074 37.0962 22.9038C36.4926 22.3002 35.7761 21.8214 34.9874 21.4948C34.1988 21.1681 33.3536 21 32.5 21C31.5717 21 30.6815 21.3687 30.0251 22.0251C29.3687 22.6815 29 23.5717 29 24.5C29 23.5717 28.6313 22.6815 27.9749 22.0251C27.3185 21.3687 26.4283 21 25.5 21C23.7761 21 22.1228 21.6848 20.9038 22.9038C19.6848 24.1228 19 25.7761 19 27.5C19 28.4283 19.3687 29.3185 20.0251 29.9749C20.6815 30.6313 21.5717 31 22.5 31C21.5717 31 20.6815 31.3687 20.0251 32.0251C19.3687 32.6815 19 33.5717 19 34.5C19 35.3536 19.1681 36.1988 19.4948 36.9874C19.8214 37.7761 20.3002 38.4926 20.9038 39.0962C22.1228 40.3152 23.7761 41 25.5 41C26.4283 41 27.3185 40.6313 27.9749 39.9749C28.6313 39.3185 29 38.4283 29 37.5C29 38.4283 29.3687 39.3185 30.0251 39.9749C30.6815 40.6313 31.5717 41 32.5 41C33.3536 41 34.1988 40.8319 34.9874 40.5052C35.7761 40.1786 36.4926 39.6998 37.0962 39.0962C37.6998 38.4926 38.1786 37.7761 38.5052 36.9874C38.8319 36.1988 39 35.3536 39 34.5C39 33.5717 38.6313 32.6815 37.9749 32.0251C37.3185 31.3687 36.4283 31 35.5 31M29 35C27.9391 35 26.9217 34.5786 26.1716 33.8284C25.4214 33.0783 25 32.0609 25 31C25 29.9391 25.4214 28.9217 26.1716 28.1716C26.9217 27.4214 27.9391 27 29 27C30.0609 27 31.0783 27.4214 31.8284 28.1716C32.5786 28.9217 33 29.9391 33 31C33 32.0609 32.5786 33.0783 31.8284 33.8284C31.0783 34.5786 30.0609 35 29 35ZM31.5 31C31.5 31.663 31.2366 32.2989 30.7678 32.7678C30.2989 33.2366 29.663 33.5 29 33.5C28.337 33.5 27.7011 33.2366 27.2322 32.7678C26.7634 32.2989 26.5 31.663 26.5 31C26.5 30.337 26.7634 29.7011 27.2322 29.2322C27.7011 28.7634 28.337 28.5 29 28.5C29.663 28.5 30.2989 28.7634 30.7678 29.2322C31.2366 29.7011 31.5 30.337 31.5 31V31Z" fill="black"/>
</svg>
