<svg width="154" height="40" viewBox="0 0 154 40" fill="none" xmlns="http://www.w3.org/2000/svg">
<rect x="4" y="4" width="150" height="36" fill="#D9D9D9"/>
<rect x="1" y="1" width="148" height="34" fill="#4994EC" stroke="black" stroke-width="2"/>
<path d="M62.4754 17.952V14.528H64.4274C64.7154 14.528 64.9927 14.5493 65.2594 14.592C65.526 14.6347 65.7607 14.72 65.9634 14.848C66.166 14.9653 66.326 15.136 66.4434 15.36C66.5714 15.584 66.6354 15.8773 66.6354 16.24C66.6354 16.6027 66.5714 16.896 66.4434 17.12C66.326 17.344 66.166 17.52 65.9634 17.648C65.7607 17.7653 65.526 17.8453 65.2594 17.888C64.9927 17.9307 64.7154 17.952 64.4274 17.952H62.4754ZM59.9634 12.576V24H62.4754V19.904H65.1154C65.83 19.904 66.438 19.8027 66.9394 19.6C67.4407 19.3867 67.846 19.1093 68.1554 18.768C68.4754 18.4267 68.7047 18.0373 68.8434 17.6C68.9927 17.152 69.0674 16.6987 69.0674 16.24C69.0674 15.7707 68.9927 15.3173 68.8434 14.88C68.7047 14.4427 68.4754 14.0533 68.1554 13.712C67.846 13.3707 67.4407 13.0987 66.9394 12.896C66.438 12.6827 65.83 12.576 65.1154 12.576H59.9634ZM70.4593 12.576V24H72.7313V12.576H70.4593ZM74.4243 18.272C74.4563 17.7387 74.5896 17.296 74.8243 16.944C75.0589 16.592 75.3576 16.3093 75.7203 16.096C76.0829 15.8827 76.4883 15.7333 76.9363 15.648C77.3949 15.552 77.8536 15.504 78.3123 15.504C78.7283 15.504 79.1496 15.536 79.5763 15.6C80.0029 15.6533 80.3923 15.7653 80.7443 15.936C81.0963 16.1067 81.3843 16.3467 81.6083 16.656C81.8323 16.9547 81.9443 17.3547 81.9443 17.856V22.16C81.9443 22.5333 81.9656 22.8907 82.0083 23.232C82.0509 23.5733 82.1256 23.8293 82.2323 24H79.9283C79.8856 23.872 79.8483 23.744 79.8163 23.616C79.7949 23.4773 79.7789 23.3387 79.7683 23.2C79.4056 23.5733 78.9789 23.8347 78.4883 23.984C77.9976 24.1333 77.4963 24.208 76.9843 24.208C76.5896 24.208 76.2216 24.16 75.8803 24.064C75.5389 23.968 75.2403 23.8187 74.9843 23.616C74.7283 23.4133 74.5256 23.1573 74.3763 22.848C74.2376 22.5387 74.1683 22.1707 74.1683 21.744C74.1683 21.2747 74.2483 20.8907 74.4083 20.592C74.5789 20.2827 74.7923 20.0373 75.0483 19.856C75.3149 19.6747 75.6136 19.5413 75.9443 19.456C76.2856 19.36 76.6269 19.2853 76.9683 19.232C77.3096 19.1787 77.6456 19.136 77.9763 19.104C78.3069 19.072 78.6003 19.024 78.8563 18.96C79.1123 18.896 79.3149 18.8053 79.4643 18.688C79.6136 18.56 79.6829 18.3787 79.6723 18.144C79.6723 17.8987 79.6296 17.7067 79.5443 17.568C79.4696 17.4187 79.3629 17.3067 79.2243 17.232C79.0963 17.1467 78.9416 17.0933 78.7603 17.072C78.5896 17.04 78.4029 17.024 78.2003 17.024C77.7523 17.024 77.4003 17.12 77.1443 17.312C76.8883 17.504 76.7389 17.824 76.6963 18.272H74.4243ZM79.6723 19.952C79.5763 20.0373 79.4536 20.1067 79.3043 20.16C79.1656 20.2027 79.0109 20.24 78.8403 20.272C78.6803 20.304 78.5096 20.3307 78.3283 20.352C78.1469 20.3733 77.9656 20.4 77.7843 20.432C77.6136 20.464 77.4429 20.5067 77.2723 20.56C77.1123 20.6133 76.9683 20.688 76.8403 20.784C76.7229 20.8693 76.6269 20.9813 76.5523 21.12C76.4776 21.2587 76.4403 21.4347 76.4403 21.648C76.4403 21.8507 76.4776 22.0213 76.5523 22.16C76.6269 22.2987 76.7283 22.4107 76.8563 22.496C76.9843 22.5707 77.1336 22.624 77.3043 22.656C77.4749 22.688 77.6509 22.704 77.8323 22.704C78.2803 22.704 78.6269 22.6293 78.8723 22.48C79.1176 22.3307 79.2989 22.1547 79.4163 21.952C79.5336 21.7387 79.6029 21.5253 79.6243 21.312C79.6563 21.0987 79.6723 20.928 79.6723 20.8V19.952ZM87.7878 25.024L91.2438 15.728H88.8918L87.0838 21.392H87.0518L85.1798 15.728H82.7637L85.6598 23.488C85.7238 23.648 85.7558 23.8187 85.7558 24C85.7558 24.2453 85.6811 24.4693 85.5318 24.672C85.3931 24.8747 85.1744 24.992 84.8758 25.024C84.6518 25.0347 84.4278 25.0293 84.2038 25.008C83.9798 24.9867 83.7611 24.9653 83.5478 24.944V26.816C83.7824 26.8373 84.0118 26.8533 84.2358 26.864C84.4704 26.8853 84.7051 26.896 84.9398 26.896C85.7184 26.896 86.3264 26.752 86.7638 26.464C87.2011 26.176 87.5424 25.696 87.7878 25.024Z" fill="black"/>
</svg>
