<svg width="276" height="316" viewBox="0 0 276 316" fill="none" xmlns="http://www.w3.org/2000/svg">
<rect width="276" height="315.429" fill="#D9D9D9"/>
<rect x="16" y="18" width="36.6797" height="36.6797" fill="#4994EC" stroke="black" stroke-width="2"/>
<rect x="140.171" y="18.1714" width="36.6797" height="36.6797" fill="#4994EC" stroke="black" stroke-width="2"/>
<rect x="16" y="60.2459" width="36.6797" height="36.6797" fill="#4994EC" stroke="black" stroke-width="2"/>
<rect x="140.171" y="60.4173" width="36.6797" height="36.6797" fill="#4994EC" stroke="black" stroke-width="2"/>
<rect x="16" y="102.492" width="36.6797" height="36.6797" fill="#4994EC" stroke="black" stroke-width="2"/>
<rect x="16" y="145.171" width="36.6797" height="36.6797" fill="#4994EC" stroke="black" stroke-width="2"/>
<rect x="16" y="187.851" width="36.6797" height="36.6797" fill="#4994EC" stroke="black" stroke-width="2"/>
<rect x="16" y="230.531" width="36.6797" height="36.6797" fill="#4994EC" stroke="black" stroke-width="2"/>
<rect x="140.171" y="102.663" width="36.6797" height="36.6797" fill="#4994EC" stroke="black" stroke-width="2"/>
<rect x="140.171" y="145.343" width="36.6797" height="36.6797" fill="#4994EC" stroke="black" stroke-width="2"/>
<rect x="140.171" y="188.023" width="36.6797" height="36.6797" fill="#4994EC" stroke="black" stroke-width="2"/>
<rect x="140.171" y="230.702" width="36.6797" height="36.6797" fill="#4994EC" stroke="black" stroke-width="2"/>
<rect x="57.4229" y="18" width="36.6797" height="36.6797" fill="#4994EC" stroke="black" stroke-width="2"/>
<rect x="181.594" y="18.1714" width="36.6797" height="36.6797" fill="#4994EC" stroke="black" stroke-width="2"/>
<rect x="57.4229" y="60.2459" width="36.6797" height="36.6797" fill="#4994EC" stroke="black" stroke-width="2"/>
<rect x="181.594" y="60.4173" width="36.6797" height="36.6797" fill="#4994EC" stroke="black" stroke-width="2"/>
<rect x="57.4229" y="102.492" width="36.6797" height="36.6797" fill="#4994EC" stroke="black" stroke-width="2"/>
<rect x="57.4229" y="145.171" width="36.6797" height="36.6797" fill="#4994EC" stroke="black" stroke-width="2"/>
<rect x="57.4229" y="187.851" width="36.6797" height="36.6797" fill="#4994EC" stroke="black" stroke-width="2"/>
<rect x="57.4229" y="230.531" width="36.6797" height="36.6797" fill="#4994EC" stroke="black" stroke-width="2"/>
<rect x="181.594" y="102.663" width="36.6797" height="36.6797" fill="#4994EC" stroke="black" stroke-width="2"/>
<rect x="181.594" y="145.343" width="36.6797" height="36.6797" fill="#4994EC" stroke="black" stroke-width="2"/>
<rect x="181.594" y="188.023" width="36.6797" height="36.6797" fill="#4994EC" stroke="black" stroke-width="2"/>
<rect x="181.594" y="230.702" width="36.6797" height="36.6797" fill="#4994EC" stroke="black" stroke-width="2"/>
<rect x="98.6688" y="18" width="36.6797" height="36.6797" fill="#4994EC" stroke="black" stroke-width="2"/>
<rect x="222.84" y="18.1714" width="36.6797" height="36.6797" fill="#4994EC" stroke="black" stroke-width="2"/>
<rect x="98.6688" y="60.2459" width="36.6797" height="36.6797" fill="#4994EC" stroke="black" stroke-width="2"/>
<rect x="222.84" y="60.4173" width="36.6797" height="36.6797" fill="#4994EC" stroke="black" stroke-width="2"/>
<rect x="98.6688" y="102.492" width="36.6797" height="36.6797" fill="#4994EC" stroke="black" stroke-width="2"/>
<rect x="98.6688" y="145.171" width="36.6797" height="36.6797" fill="#4994EC" stroke="black" stroke-width="2"/>
<rect x="98.6688" y="187.851" width="36.6797" height="36.6797" fill="#4994EC" stroke="black" stroke-width="2"/>
<rect x="98.6688" y="230.531" width="36.6797" height="36.6797" fill="#4994EC" stroke="black" stroke-width="2"/>
<rect x="222.84" y="102.663" width="36.6797" height="36.6797" fill="#4994EC" stroke="black" stroke-width="2"/>
<rect x="222.84" y="145.343" width="36.6797" height="36.6797" fill="#4994EC" stroke="black" stroke-width="2"/>
<rect x="222.84" y="188.023" width="36.6797" height="36.6797" fill="#4994EC" stroke="black" stroke-width="2"/>
<rect x="222.84" y="230.702" width="36.6797" height="36.6797" fill="#4994EC" stroke="black" stroke-width="2"/>
<path d="M90.5573 284.706V297.114H93.9653V289.914C93.9653 289.306 94.0533 288.818 94.2293 288.45C94.4053 288.066 94.6133 287.778 94.8533 287.586C95.1093 287.378 95.3653 287.242 95.6213 287.178C95.8933 287.098 96.1093 287.058 96.2693 287.058C96.8133 287.058 97.2213 287.154 97.4933 287.346C97.7813 287.522 97.9813 287.762 98.0933 288.066C98.2213 288.37 98.2933 288.706 98.3093 289.074C98.3253 289.426 98.3333 289.786 98.3333 290.154V297.114H101.741V290.202C101.741 289.818 101.765 289.442 101.813 289.074C101.877 288.69 101.989 288.354 102.149 288.066C102.325 287.762 102.557 287.522 102.845 287.346C103.149 287.154 103.541 287.058 104.021 287.058C104.501 287.058 104.877 287.138 105.149 287.298C105.437 287.458 105.653 287.674 105.797 287.946C105.941 288.218 106.029 288.538 106.061 288.906C106.093 289.274 106.109 289.666 106.109 290.082V297.114H109.517V288.81C109.517 288.01 109.405 287.33 109.181 286.77C108.957 286.194 108.645 285.73 108.245 285.378C107.845 285.026 107.365 284.77 106.805 284.61C106.245 284.45 105.637 284.37 104.981 284.37C104.117 284.37 103.365 284.578 102.725 284.994C102.101 285.41 101.605 285.89 101.237 286.434C100.901 285.666 100.405 285.13 99.7493 284.826C99.1093 284.522 98.3973 284.37 97.6133 284.37C96.7973 284.37 96.0693 284.546 95.4293 284.898C94.8053 285.25 94.2693 285.746 93.8213 286.386H93.7733V284.706H90.5573ZM120.563 289.578H115.019C115.035 289.338 115.083 289.066 115.163 288.762C115.259 288.458 115.411 288.17 115.619 287.898C115.843 287.626 116.131 287.402 116.483 287.226C116.851 287.034 117.307 286.938 117.851 286.938C118.683 286.938 119.299 287.162 119.699 287.61C120.115 288.058 120.403 288.714 120.563 289.578ZM115.019 291.738H123.971C124.035 290.778 123.955 289.858 123.731 288.978C123.507 288.098 123.139 287.314 122.627 286.626C122.131 285.938 121.491 285.394 120.707 284.994C119.923 284.578 119.003 284.37 117.947 284.37C117.003 284.37 116.139 284.538 115.355 284.874C114.587 285.21 113.923 285.674 113.363 286.266C112.803 286.842 112.371 287.53 112.067 288.33C111.763 289.13 111.611 289.994 111.611 290.922C111.611 291.882 111.755 292.762 112.043 293.562C112.347 294.362 112.771 295.05 113.315 295.626C113.859 296.202 114.523 296.65 115.307 296.97C116.091 297.274 116.971 297.426 117.947 297.426C119.355 297.426 120.555 297.106 121.547 296.466C122.539 295.826 123.275 294.762 123.755 293.274H120.755C120.643 293.658 120.339 294.026 119.843 294.378C119.347 294.714 118.755 294.882 118.067 294.882C117.107 294.882 116.371 294.634 115.859 294.138C115.347 293.642 115.067 292.842 115.019 291.738ZM126.089 284.706V297.114H129.497V289.914C129.497 289.306 129.585 288.818 129.761 288.45C129.937 288.066 130.145 287.778 130.385 287.586C130.641 287.378 130.897 287.242 131.153 287.178C131.425 287.098 131.641 287.058 131.801 287.058C132.345 287.058 132.753 287.154 133.025 287.346C133.313 287.522 133.513 287.762 133.625 288.066C133.753 288.37 133.825 288.706 133.841 289.074C133.857 289.426 133.865 289.786 133.865 290.154V297.114H137.273V290.202C137.273 289.818 137.297 289.442 137.345 289.074C137.409 288.69 137.521 288.354 137.681 288.066C137.857 287.762 138.089 287.522 138.377 287.346C138.681 287.154 139.073 287.058 139.553 287.058C140.033 287.058 140.409 287.138 140.681 287.298C140.969 287.458 141.185 287.674 141.329 287.946C141.473 288.218 141.561 288.538 141.593 288.906C141.625 289.274 141.641 289.666 141.641 290.082V297.114H145.049V288.81C145.049 288.01 144.937 287.33 144.713 286.77C144.489 286.194 144.177 285.73 143.777 285.378C143.377 285.026 142.897 284.77 142.337 284.61C141.777 284.45 141.169 284.37 140.513 284.37C139.649 284.37 138.897 284.578 138.257 284.994C137.633 285.41 137.137 285.89 136.769 286.434C136.433 285.666 135.937 285.13 135.281 284.826C134.641 284.522 133.929 284.37 133.145 284.37C132.329 284.37 131.601 284.546 130.961 284.898C130.337 285.25 129.801 285.746 129.353 286.386H129.305V284.706H126.089ZM150.767 290.922C150.767 290.426 150.815 289.938 150.911 289.458C151.007 288.978 151.167 288.554 151.391 288.186C151.631 287.818 151.943 287.522 152.327 287.298C152.711 287.058 153.191 286.938 153.767 286.938C154.343 286.938 154.823 287.058 155.207 287.298C155.607 287.522 155.919 287.818 156.143 288.186C156.383 288.554 156.551 288.978 156.647 289.458C156.743 289.938 156.791 290.426 156.791 290.922C156.791 291.418 156.743 291.906 156.647 292.386C156.551 292.85 156.383 293.274 156.143 293.658C155.919 294.026 155.607 294.322 155.207 294.546C154.823 294.77 154.343 294.882 153.767 294.882C153.191 294.882 152.711 294.77 152.327 294.546C151.943 294.322 151.631 294.026 151.391 293.658C151.167 293.274 151.007 292.85 150.911 292.386C150.815 291.906 150.767 291.418 150.767 290.922ZM147.359 290.922C147.359 291.914 147.511 292.81 147.815 293.61C148.119 294.41 148.551 295.098 149.111 295.674C149.671 296.234 150.343 296.666 151.127 296.97C151.911 297.274 152.791 297.426 153.767 297.426C154.743 297.426 155.623 297.274 156.407 296.97C157.207 296.666 157.887 296.234 158.447 295.674C159.007 295.098 159.439 294.41 159.743 293.61C160.047 292.81 160.199 291.914 160.199 290.922C160.199 289.93 160.047 289.034 159.743 288.234C159.439 287.418 159.007 286.73 158.447 286.17C157.887 285.594 157.207 285.154 156.407 284.85C155.623 284.53 154.743 284.37 153.767 284.37C152.791 284.37 151.911 284.53 151.127 284.85C150.343 285.154 149.671 285.594 149.111 286.17C148.551 286.73 148.119 287.418 147.815 288.234C147.511 289.034 147.359 289.93 147.359 290.922ZM162.414 284.706V297.114H165.822V291.522C165.822 290.962 165.878 290.442 165.99 289.962C166.102 289.482 166.286 289.066 166.542 288.714C166.814 288.346 167.166 288.058 167.598 287.85C168.03 287.642 168.558 287.538 169.182 287.538C169.39 287.538 169.606 287.554 169.83 287.586C170.054 287.602 170.246 287.626 170.406 287.658V284.49C170.134 284.41 169.886 284.37 169.662 284.37C169.23 284.37 168.814 284.434 168.414 284.562C168.014 284.69 167.638 284.874 167.286 285.114C166.934 285.338 166.622 285.618 166.35 285.954C166.078 286.274 165.862 286.626 165.702 287.01H165.654V284.706H162.414ZM177.863 298.65L183.047 284.706H179.519L176.807 293.202H176.759L173.951 284.706H170.327L174.671 296.346C174.767 296.586 174.815 296.842 174.815 297.114C174.815 297.482 174.703 297.818 174.479 298.122C174.271 298.426 173.943 298.602 173.495 298.65C173.159 298.666 172.823 298.658 172.487 298.626C172.151 298.594 171.823 298.562 171.503 298.53V301.338C171.855 301.37 172.199 301.394 172.535 301.41C172.887 301.442 173.239 301.458 173.591 301.458C174.759 301.458 175.671 301.242 176.327 300.81C176.983 300.378 177.495 299.658 177.863 298.65Z" fill="black"/>
</svg>
