<svg width="60" height="60" viewBox="0 0 60 60" fill="none" xmlns="http://www.w3.org/2000/svg">
<rect x="2.44897" y="2.44897" width="57.551" height="57.551" fill="#D9D9D9"/>
<rect x="1" y="1" width="55.551" height="55.551" fill="#4994EC" stroke="black" stroke-width="2"/>
<g clip-path="url(#clip0_31_287)">
<path d="M29 31.25C30.2426 31.25 31.25 30.2426 31.25 29C31.25 27.7574 30.2426 26.75 29 26.75C27.7574 26.75 26.75 27.7574 26.75 29C26.75 30.2426 27.7574 31.25 29 31.25Z" fill="black"/>
<path d="M39.3092 31.2458C39.7482 30.8138 40.0516 30.263 40.1821 29.6611C40.3126 29.0592 40.2646 28.4322 40.0439 27.8572C39.8232 27.2822 39.4395 26.7841 38.9398 26.4241C38.44 26.064 37.8461 25.8576 37.2308 25.8303C37.1844 25.8283 37.1395 25.8131 37.1015 25.7864C37.0635 25.7597 37.0338 25.7228 37.0161 25.6798C36.9985 25.6368 36.9936 25.5896 37.0019 25.5439C37.0102 25.4981 37.0314 25.4557 37.063 25.4216C37.4749 24.9661 37.7462 24.4011 37.8439 23.7948C37.9417 23.1885 37.8617 22.5669 37.6138 22.0051C37.3659 21.4432 36.9606 20.9652 36.4468 20.6288C35.9331 20.2923 35.3329 20.1119 34.7188 20.1092H34.707C33.919 20.1091 33.1595 20.4047 32.5789 20.9375C32.5447 20.9692 32.5022 20.9904 32.4564 20.9987C32.4105 21.007 32.3633 21.0021 32.3202 20.9844C32.2772 20.9666 32.2403 20.9369 32.2135 20.8989C32.1868 20.8609 32.1714 20.8161 32.1692 20.7697C32.1334 19.9531 31.7838 19.1819 31.1934 18.6168C30.6029 18.0516 29.8171 17.7362 28.9998 17.7362C28.1824 17.7362 27.3966 18.0516 26.8062 18.6168C26.2157 19.1819 25.8661 19.9531 25.8303 20.7697C25.8283 20.8161 25.8131 20.8609 25.7864 20.899C25.7597 20.937 25.7228 20.9666 25.6798 20.9844C25.6367 21.0021 25.5895 21.007 25.5436 20.9987C25.4978 20.9904 25.4553 20.9692 25.4211 20.9375C24.8402 20.4038 24.08 20.1078 23.2911 20.1083H23.2813C22.6678 20.1126 22.0687 20.294 21.5559 20.6308C21.0432 20.9676 20.6387 21.4454 20.3911 22.0066C20.1434 22.5679 20.0633 23.1888 20.1602 23.7945C20.2572 24.4003 20.5271 24.9651 20.9375 25.4211C20.9691 25.4552 20.9903 25.4976 20.9986 25.5434C21.0069 25.5891 21.002 25.6363 20.9844 25.6794C20.9666 25.7223 20.937 25.7593 20.899 25.7859C20.861 25.8126 20.8161 25.8278 20.7697 25.8298C19.9582 25.8729 19.194 26.2256 18.6348 26.8152C18.0756 27.4049 17.7639 28.1866 17.7639 28.9993C17.7639 29.812 18.0756 30.5937 18.6348 31.1834C19.194 31.773 19.9582 32.1257 20.7697 32.1687C20.8162 32.171 20.861 32.1865 20.899 32.2133C20.937 32.2401 20.9666 32.2771 20.9844 32.3202C21.002 32.3633 21.007 32.4105 20.9987 32.4564C20.9903 32.5022 20.9691 32.5447 20.9375 32.5789C20.5242 33.033 20.2519 33.5975 20.1537 34.2036C20.0555 34.8097 20.1357 35.4313 20.3845 35.9926C20.6333 36.554 21.0399 37.0309 21.5549 37.3652C22.0699 37.6996 22.671 37.877 23.285 37.8758H23.2967C24.0813 37.8779 24.8386 37.588 25.4211 37.0625C25.4552 37.0309 25.4976 37.0097 25.5434 37.0014C25.5892 36.9931 25.6363 36.998 25.6794 37.0156C25.7223 37.0334 25.7593 37.063 25.7859 37.101C25.8126 37.139 25.8278 37.1839 25.8298 37.2303C25.8729 38.0418 26.2256 38.806 26.8152 39.3652C27.4049 39.9244 28.1866 40.2361 28.9993 40.2361C29.812 40.2361 30.5937 39.9244 31.1834 39.3652C31.773 38.806 32.1257 38.0418 32.1688 37.2303C32.171 37.1839 32.1864 37.1391 32.2131 37.1011C32.2398 37.0631 32.2768 37.0334 32.3197 37.0156C32.3627 36.998 32.4099 36.9931 32.4557 37.0014C32.5014 37.0097 32.5438 37.0309 32.578 37.0625C33.1597 37.5889 33.9164 37.88 34.7009 37.8791H34.7127C35.3272 37.8815 35.9291 37.7048 36.4449 37.3707C36.9607 37.0366 37.368 36.5594 37.617 35.9976C37.866 35.4357 37.9459 34.8135 37.847 34.207C37.7482 33.6004 37.4747 33.0358 37.0602 32.5822C37.0285 32.548 37.0073 32.5055 36.999 32.4596C36.9907 32.4138 36.9957 32.3666 37.0133 32.3234C37.0311 32.2805 37.0607 32.2435 37.0987 32.2168C37.1367 32.1901 37.1816 32.1747 37.228 32.1725C38.0129 32.1336 38.7551 31.8031 39.3092 31.2458ZM29 32.75C28.2583 32.75 27.5333 32.5301 26.9166 32.118C26.2999 31.706 25.8193 31.1203 25.5355 30.4351C25.2516 29.7498 25.1774 28.9958 25.3221 28.2684C25.4668 27.541 25.8239 26.8728 26.3484 26.3483C26.8728 25.8239 27.541 25.4667 28.2684 25.3221C28.9958 25.1774 29.7498 25.2516 30.4351 25.5354C31.1203 25.8193 31.706 26.2999 32.118 26.9166C32.5301 27.5333 32.75 28.2583 32.75 29C32.7489 29.9942 32.3534 30.9474 31.6504 31.6504C30.9474 32.3534 29.9942 32.7489 29 32.75V32.75Z" fill="black"/>
</g>
<defs>
<clipPath id="clip0_31_287">
<rect width="24" height="24" fill="white" transform="translate(17 17)"/>
</clipPath>
</defs>
</svg>
